<svg id="ep8D9Jtn2y41" xmlns="http://www.w3.org/2000/svg" xmlns:xlink="http://www.w3.org/1999/xlink" viewBox="0 0 1081 487" shape-rendering="geometricPrecision" text-rendering="geometricPrecision"><g><g id="ep8D9Jtn2y43"><path d="M306.3,75.4c-17.1-4.9-15.3-26.3-15.1-28.7.067-.0667.1-.1333.1-.2-2.066-15.8,2.934-25.4,15-28.8c12.067-3.4667,19.834-9.36667,23.3-17.7c3.467,8.33333,11.234,14.2333,23.3,17.7c12.067,3.4,17.1,13,15.1,28.8c0,.0667,0,.1333,0,.2.2,2.4,2,23.8-15.1,28.7-12.066,3.4667-19.833,9.3667-23.3,17.7-3.466-8.3333-11.233-14.2333-23.3-17.7Zm-42.7,89.3c-4.9,17.1-26.3,15.3-28.7,15.1-.066,0-.133,0-.2,0-15.8,2-25.4-3.033-28.8-15.1-3.466-12.067-9.366-19.833-17.7-23.3c8.334-3.4,14.234-11.133,17.7-23.2c3.4-12.067,13-17.1,28.8-15.1.067,0,.134-.033.2-.1c2.4-.2,23.8-2,28.7,15.2c3.467,12.067,9.367,19.8,17.7,23.2-8.333,3.467-14.233,11.233-17.7,23.3Zm132-46.5c4.9-17.2,26.4-15.4,28.7-15.2.067.067.134.1.2.1c15.8-2,25.434,3.033,28.9,15.1c3.4,12.067,9.267,19.8,17.6,23.2-8.333,3.467-14.2,11.233-17.6,23.3-3.466,12.067-13.1,17.1-28.9,15.1-.066,0-.133,0-.2,0-2.3.2-23.8,2-28.7-15.1-3.4-12.067-9.266-19.833-17.6-23.3c8.334-3.4,14.2-11.133,17.6-23.2Zm-42.7,89.2c17.1,4.9,15.3,26.4,15.1,28.7c0,.067,0,.133,0,.2c2,15.8-3.033,25.433-15.1,28.9-12.066,3.467-19.833,9.367-23.3,17.7-3.466-8.333-11.233-14.233-23.3-17.7-12.066-3.467-17.066-13.1-15-28.9c0-.067-.033-.133-.1-.2-.2-2.3-2-23.8,15.1-28.7c12.067-3.4,19.834-9.267,23.3-17.6c3.467,8.333,11.234,14.2,23.3,17.6Z" fill="#ff3618"/><path d="M299.4,204.6c8.6,15.5-7.8,29.4-9.6,30.9-.067.067-.133.1-.2.1-9.733,12.6-20.067,15.867-31,9.8-11-6.133-20.667-7.467-29-4c3.467-8.333,2.133-17.967-4-28.9-6.067-11-2.8-21.367,9.8-31.1c0-.067.033-.133.1-.2c1.5-1.8,15.4-18.2,31-9.6c10.933,6.133,20.567,7.467,28.9,4-3.4,8.333-2.067,18,4,29Zm-32.9-93.4c-15.6,8.6-29.5-7.8-31-9.6-.067-.067-.1-.1-.1-.1-12.6-9.8001-15.867-20.1668-9.8-31.1001c6.133-11,7.467-20.6667,4-29c8.333,3.4667,18,2.1667,29-3.9c10.933-6.1333,21.267-2.9,31,9.7.067.0667.133.1.2.1c1.8,1.5,18.2,15.4,9.6,31-6.067,10.9333-7.4,20.5667-4,28.9001-8.333-3.4-17.967-2.067-28.9,4Zm93.3-32.9001c-8.6-15.6,7.8-29.5,9.6-31c.067,0,.133-.0333.2-.1c9.733-12.6,20.1-15.8333,31.1-9.7c10.933,6.0667,20.567,7.3667,28.9,3.9-3.467,8.3333-2.133,18,4,29c6.067,10.9333,2.8,21.3-9.8,31.1001c0,0-.033.033-.1.1-1.5,1.8-15.4,18.2-31,9.6-10.933-6.067-20.567-7.4-28.9-4c3.467-8.2668,2.133-17.9001-4-28.9001v0ZM392.7,171.6c15.6-8.6,29.5,7.8,31,9.6.067.067.1.133.1.2c12.6,9.733,15.867,20.1,9.8,31.1-6.133,10.933-7.467,20.567-4,28.9-8.333-3.467-17.967-2.133-28.9,4-11,6.067-21.367,2.8-31.1-9.8-.067,0-.133-.033-.2-.1-1.8-1.5-18.2-15.4-9.6-30.9c6.133-11,7.467-20.667,4-29c8.333,3.467,17.967,2.133,28.9-4v0Z" fill="#b71e25"/><path d="M235.9,141.4c0-51.6,42.1-93.7,93.7-93.7s93.7,42.1,93.7,93.7-42.1,93.7-93.7,93.7-93.7-42.1-93.7-93.7Z" fill="#ff3618"/><path d="M247.2,141.4c0-45.4,37-82.4,82.4-82.4s82.5,37,82.5,82.4-37.1,82.5-82.5,82.5-82.4-37.1-82.4-82.5Z" fill="#fdb64f"/></g><g><path d="M270.5,141.4c0-32.5,26.6-59.1,59.1-59.1c32.6,0,59.1,26.6,59.1,59.1c0,32.6-26.5,59.1-59.1,59.1-32.5,0-59.1-26.5-59.1-59.1Z" fill="#b71e25"/><path d="M339.8,156.4c-9.2,0-13.7-5.1-13.7-11.1c0-5.3,2.6-8.6,6.8-8.6c4.3,0,6,2.2,6,5.1c0,2.8-1.7,5.1-4.3,5.1-3.4,0-4.2-2.5-4.2-3.4-.6,5.2,1.4,7.8,6,7.8c7.4,0,9.4-11.3,9.4-19.8c0-12.7-5.8-18.8-13.2-18.8-4.666,0-8.266,1.133-10.8,3.4v56.5c2.267,2.267,3.967,5.133,5.1,8.6-3.4-2.333-7.1-3.5-11.1-3.5s-7.7,1.167-11.1,3.5c1.067-3.467,2.767-6.333,5.1-8.6v-57.4c-2.333-2.267-4.033-5.1-5.1-8.5c3.4,2.267,7.1,3.4,11.1,3.4c5.1,0,8.6-3.4,16.8-3.4c17.5,0,26,9.9,26,24.8c0,17.1-7.9,24.9-18.8,24.9v0Z" fill="#fff"/></g><g><path d="M397.8,331.2c0-20.9-9.7-32.4-27.7-32.4-24.3,0-38.4,14.5-39.2,33.5l-.8,15.2-4.4.1l2.7-57.9h2.5l-.8,13c-.2,3.5-.5,6.2-1,7.9l1.8.5c.2-.8,2.2-4.5,3.9-5.7c7.6-5.6,20.3-10.8,35-10.8c30.9,0,47.6,13.9,47.6,39.7v89.3c0,9.8.7,12.5,8.1,12.5c1.4,0,2.9-.3,4.9-.3l4.1-.2.1,2.2c-11.8,1.2-20.1,3.1-27,5.4v-2c0-11-4.5-29.4-4.7-38h-2.4c-7.4,29.4-23.6,39.7-41.2,39.7-27.8,0-46.3-15.1-46.3-37.7c0-29.2,26.2-48.6,65.6-48.6h19.2v-25.4ZM166.6,472.9v-2.2h8.6c11.8,0,13-1.2,13-13v-145.8c0-11.8-1.2-13-13-13h-8.6v-2.2h64c39.2,0,65.2,21.8,65.2,54.4c0,29.9-22.5,50.2-52,52.9l-4.9.3v1.5c8.3.8,16.6,6.9,25.3,15.4c20.8,20.5,53.2,55.4,101.9,55.4c17,0,38-2.6,61.6-10l6.8-2.2.6,2.2-6.8,2.1c-30.9,9.8-55.9,15.7-78.3,15.7-35.7,0-64.6-14.9-99.5-52.8-13.1-14.3-22.3-26.1-30.2-26.1h-2.9v-4.2h11.3c27.4,0,45.8-20.1,45.8-50.2c0-30-18.4-50-45.8-50h-25.5v.2c2.9,3,4.1,7.2,4.1,12.8v143.6c0,11.8,1.5,13,13.3,13h14.2v2.2h-68.2ZM379.8,361.1c-27.4,0-45.6,17.7-45.6,44.2c0,18.6,11.2,31.1,28,31.1c17.1,0,35.5-15.7,35.5-50.7v-24.6h-17.9ZM442,470.7h8.6c11.8,0,13-1.2,13-13v-139.7c0-4.4-3.2-7.9-8.1-7.9-.3,0-.6.1-1,.1l-14.4,1.2-.3-1.5l18.9-3.9c9.8-2,17.2-7.9,17.2-17.9v-1h1.9v32.1c0,4-.2,20.1-.5,22.6h2.2c.8-5.2,2.2-12.3,4-16.9c7.3-19.1,19.3-30.2,38.7-30.2c25.7,0,32.6,14.2,32.6,32.4v14.7h1c.5-8.1,5-20.8,6.1-22.8c7.8-15.1,18.4-24.3,36.3-24.3c21,0,36.5,11.3,36.5,32.6v72.6c0,50,36.8,83.3,92,83.3c29.6,0,60.2-11.2,71.2-33.8l2,1c-11.6,23.5-43.2,36-77,36-64.4,0-107.3-38.5-107.3-96.3v-60.6c0-19.8-8.4-30.6-19.6-30.6-22.3,0-37.3,22.5-37.3,56.6v102.2c0,11.8,1.5,13,13.2,13h6.4v2.2h-52.9v-2.2h16.4v-.5c-1.7-1.7-2.2-2.4-2.2-6.4v-134.3c0-19.8-8.3-30.6-19.6-30.6-22.3,0-37.3,22.5-37.3,56.6v102.2c0,11.8,1.5,13,13.3,13h8.5v2.2h-62.5v-2.2ZM683,361.4c0,.933,0,1.9,0,2.9c0,48.3,18.3,74.3,52.9,74.3c29,0,51.3-13.5,62.1-36.2l3.7,2.5c-11.5,23.8-35.1,38.1-65.8,38.1-44.3,0-73.8-29.9-73.8-74.7c0-44.2,29.8-73.6,74.5-73.6c39,0,65,23.4,65,58.4v1.2c0,3.9-3.2,7.1-7.6,7.1h-111Zm96.3-6.1c1.5,0,2-.7,2-2.2c0-32.4-18.3-54-45.6-54-32.7,0-50.4,20.2-52.6,57.9l96.2-1.7Zm42,57.4l.4,10.1c1.5,29,21.1,47.6,44.3,47.6c22.2,0,36.6-12.9,36.6-36.9c0-44.8-80.6-44.7-80.6-99.1c0-23.8,19.3-39.7,48.3-39.7c14.7,0,25,5.2,32.6,10.8c1.7,1.2,3.6,4.9,3.9,5.6l1.7-.5c-.5-1.7-.7-4.4-1-7.8l-.7-13h2.4l2.7,57.9-4.4.2-.5-10.3c-.9-19.4-12.5-38.5-36.7-38.5-20,0-31.2,10.5-31.2,29.9c0,43.4,81.9,42.9,81.9,100.6c0,29.4-20.7,45.2-54.7,45.2-15,0-26.1-4.4-38.7-13.1-1.7-1.2-5.4-5.8-6.1-8.1l-1,.3c.8,2.4.8,7.6,1,10.5l.7,15.3-2.2.1-3.2-66.9l4.5-.2Zm110.3,58h8.6c11.8,0,13-3.4,13-15.2v-141.4c0-11.8-1.2-15.2-13-15.2h-8.6v-2.2h60.3v2.2h-6.4c-11.7,0-13.2,3.4-13.2,15.2v63.9h67.2v-63.9c0-11.8-1.5-15.2-13.3-15.2h-6.3v-2.2h60.5v2.2h-8.8c-11.8,0-13,3.4-13,15.2v141.4c0,11.8,1.2,15.2,13,15.2h8.8v2.2h-60.5v-2.2h6.6c11.7,0,13-3.4,13-15.2v-73h-67.2v73c0,11.8,1.5,15.2,13.2,15.2h6.4v2.2h-60.3v-2.2Z" clip-rule="evenodd" fill="#b71e25" fill-rule="evenodd"/><path d="M0,470.1h10.6c14.5,0,16.1-1.5,16.1-16.1v-180.3c0-14.6-1.6-16.1-16.1-16.1h-10.6v-2.7h76.4c45.7,0,76.1,26.6,76.1,66.6c0,39.9-30.4,66.4-76.1,66.4h-26.1v66.1c0,14.6,1.8,16.1,16.4,16.1h7.6v2.7h-74.3v-2.7ZM45.2,262.2c3.6,4.8,5.1,11.8,5.1,18.8v101.5h17c38.2,0,58.8-21.3,58.8-60.9s-20.6-61-58.8-61h-22.1v1.6Z" clip-rule="evenodd" fill="#b71e25" fill-rule="evenodd"/><path d="M846.5,262.7c0,2.533-.7,4.733-2.1,6.6-1.266,1.733-2.9,3-4.9,3.8-1.866.8-4.1,1.2-6.7,1.2-3.2,0-6.333-.733-9.4-2.2l-.2-.5c.4-1.8.6-4.3.6-7.5l.2-.2h1.5l.2.2v.5c0,.867.1,2,.3,3.4.534,1,1.5,1.833,2.9,2.5c1.467.733,3,1.1,4.6,1.1c3,0,5.1-1.033,6.3-3.1.6-1.133.9-2.267.9-3.4c0-1.933-.833-3.333-2.5-4.2-.8-.4-2.1-.733-3.9-1-4.066-.6-6.733-1.4-8-2.4-1.933-1.4-2.9-3.6-2.9-6.6c0-3.133,1.067-5.633,3.2-7.5c2.2-1.933,5.267-2.9,9.2-2.9c3.6,0,6.467.567,8.6,1.7l.2.6c-.333,1.8-.566,3.967-.7,6.5l-.2.2h-1.4l-.3-.2c0-1.8-.066-2.967-.2-3.5-.466-.733-1.3-1.367-2.5-1.9s-2.5-.8-3.9-.8c-2,0-3.6.567-4.8,1.7-1.133,1-1.7,2.3-1.7,3.9c0,1.733.634,3.033,1.9,3.9.8.533,2.734,1.033,5.8,1.5.334.067,1.234.233,2.7.5.934.133,1.767.333,2.5.6c1.534.6,2.7,1.5,3.5,2.7.8,1.267,1.2,2.867,1.2,4.8v0Zm16.2-19.3c0,1-.366,1.833-1.1,2.5-.666.667-1.466,1-2.4,1-1,0-1.833-.333-2.5-1-.733-.667-1.1-1.5-1.1-2.5s.367-1.833,1.1-2.5c.667-.733,1.5-1.1,2.5-1.1.934,0,1.734.367,2.4,1.1.734.667,1.1,1.5,1.1,2.5Zm3.1,29.8l-.2.2c-1.466-.133-3.566-.2-6.3-.2-2.733,0-4.8.067-6.2.2l-.2-.2v-1.4l.2-.2c1.467-.067,2.367-.2,2.7-.4.334-.133.5-.5.5-1.1.134-1.933.2-4.033.2-6.3v-3.3c0-2.933-.133-4.7-.4-5.3-.133-.267-.466-.433-1-.5-.133-.067-.766-.1-1.9-.1l-.3-.3v-1.3l.3-.2c2.867-.267,5.8-.9,8.8-1.9l.5.3c-.2,2.8-.3,5.133-.3,7v7.3c0,1.133.034,2.667.1,4.6.067.6.234.967.5,1.1.4.2,1.334.333,2.8.4l.2.2v1.4Zm31.4,0l-.2.2c-1.666-.067-3.066-.1-4.2-.1-1.066,0-2.633.033-4.7.1l-.2-.2c.267-3.4.4-6.033.4-7.9v-4.4c0-3.733-1.333-5.6-4-5.6-1.4,0-2.5.467-3.3,1.4-.666.8-1,1.633-1,2.5v4.2c0,4,.1,6.433.3,7.3.134.533,1,.8,2.6.8l.3.3v1.4l-.3.2c-1.266-.067-3.2-.1-5.8-.1-2.733,0-4.8.033-6.2.1l-.2-.2v-1.4l.2-.2c1.467-.067,2.367-.2,2.7-.4.334-.133.5-.5.5-1.1.134-1.933.2-4.033.2-6.3v-3.3c0-3.067-.133-4.833-.4-5.3-.133-.267-.433-.433-.9-.5-.2-.067-.866-.1-2-.1l-.3-.3v-1.2l.3-.3c2.734-.267,5.6-.9,8.6-1.9l.5.3v3.8l3.9-3.2c1-.467,2.1-.7,3.3-.7c2.4,0,4.2.733,5.4,2.2c1,1.2,1.5,2.967,1.5,5.3c0,.2-.033,1.233-.1,3.1-.066,1.867-.1,3.2-.1,4c0,2.267.034,3.733.1,4.4.067.6.267,1,.6,1.2.267.133,1.034.233,2.3.3l.2.2v1.4Zm23.2-2.8l-1,2.3c-2.066,1.067-4.1,1.6-6.1,1.6-3.4,0-6-.967-7.8-2.9s-2.7-4.6-2.7-8c.067-3.133.767-5.533,2.1-7.2.4-.4,1.134-1,2.2-1.8c2.2-1.533,3.667-2.433,4.4-2.7.734-.333,1.867-.5,3.4-.5c2.067,0,3.767.3,5.1.9l.2.4c0,.2-.1.933-.3,2.2l-.2,1.5c-.066.267-.133,1.3-.2,3.1l-.3.2h-1.3l-.3-.2c-.066-1.4-.166-2.367-.3-2.9-.666-1.133-1.933-1.7-3.8-1.7-3.266,0-4.9,2.067-4.9,6.2c0,3.067.667,5.467,2,7.2c1.267,1.8,3.134,2.7,5.6,2.7c1.4,0,2.667-.3,3.8-.9l.4.5Zm25.4-9.9c0,.267,0,.633,0,1.1l-.3.4c-2,.533-4.666.8-8,.8-.533,0-1.4,0-2.6,0s-2.133,0-2.8,0c.134,2.267.834,4.133,2.1,5.6c1.334,1.533,3.1,2.3,5.3,2.3c1.467,0,3.2-.5,5.2-1.5l.6.7-1,2.3c-2.266,1.4-4.7,2.1-7.3,2.1-3.4,0-6.066-.967-8-2.9-1.866-1.933-2.8-4.7-2.8-8.3c0-4.2,1-7.1,3-8.7c2.8-2.133,5.467-3.2,8-3.2c2.734,0,4.834.767,6.3,2.3c1.534,1.6,2.3,3.933,2.3,7v0Zm-6-.6c0-4.133-1.266-6.2-3.8-6.2-2.666,0-4,2.033-4,6.1v.5c.867.133,2.434.2,4.7.2c1.134,0,2.167-.067,3.1-.2c0-.2,0-.333,0-.4v0Zm40.6,13.3l-.2.3c-2.133-.133-4.733-.2-7.8-.2-3,0-6.166.067-9.5.2l-.2-.3v-1.4l.2-.2c.8-.067,1.567-.133,2.3-.2c1.334-.133,2.167-.267,2.5-.4.267-.133.5-.4.7-.8.267-.733.4-3.633.4-8.7v-5.7c0-1.733-.033-3.9-.1-6.5v-1.7c0-.733-.166-1.1-.5-1.1-.133,0-.6.167-1.4.5-2.066.933-3.833,1.767-5.3,2.5l-.3-.1c-.066-.867-.233-1.833-.5-2.9l.1-.2c4.2-1.2,8.867-2.8,14-4.8l.5.4c-.066.867-.133,2.167-.2,3.9-.066.667-.133,2.467-.2,5.4v9c0,6.4.1,9.833.3,10.3.134.4.367.633.7.7.534.133,1.967.267,4.3.4l.2.2v1.4Zm26.2-18.1c0,4-.7,7.333-2.1,10-1.53,2.8-3.57,5.033-6.1,6.7-2.533,1.667-5.366,2.5-8.5,2.5l-1.8-1.5.6-.9c.4.2.967.3,1.7.3c2.334,0,4.4-.9,6.2-2.7.667-.667,1.334-1.6,2-2.8.934-1.867,1.6-4.6,2-8.2-2.266,2.067-3.533,3.133-3.8,3.2-1,.333-2.1.5-3.3.5-2,0-3.633-.733-4.9-2.2-1.4-1.6-2.1-3.8-2.1-6.6c0-4.4,1.567-7.667,4.7-9.8c1.467-1,3.3-1.5,5.5-1.5c4.07,0,6.97,1.867,8.7,5.6.8,1.933,1.2,4.4,1.2,7.4v0Zm-5.9-2.4c0-2.8-.4-4.867-1.2-6.2-.866-1.333-2-2-3.4-2-1.733,0-2.933.933-3.6,2.8-.333,1-.5,2.2-.5,3.6c0,2.4.434,4.2,1.3,5.4.867,1.2,2,1.8,3.4,1.8c1.8,0,3-.8,3.6-2.4.27-.733.4-1.733.4-3v0Zm32.1,10.9c0,1.8-.33,3.367-1,4.7-1.2,2.6-3.17,4.4-5.9,5.4-1.13.4-2.5.6-4.1.6-3.47,0-6.1-1.3-7.9-3.9-.87-1.2-1.3-2.733-1.3-4.6c0-2.267.77-4.133,2.3-5.6.47-.467,1.53-1.133,3.2-2-3.07-1.733-4.6-4.167-4.6-7.3c0-3.533,1.6-6.133,4.8-7.8c1.4-.733,3-1.1,4.8-1.1c2.6,0,4.67.667,6.2,2c1.4,1.2,2.1,2.833,2.1,4.9c0,2.667-1.43,4.867-4.3,6.6c2.13.933,3.63,2.067,4.5,3.4.8,1.2,1.2,2.767,1.2,4.7v0Zm-5.3-14.1c0-1.467-.43-2.667-1.3-3.6s-2.07-1.4-3.6-1.4c-1.4,0-2.5.433-3.3,1.3-.73.8-1.1,1.8-1.1,3c0,1.133.5,2.167,1.5,3.1.47.533,1.2,1.033,2.2,1.5.4.2.93.467,1.6.8l1.3.5c1.8-1.2,2.7-2.933,2.7-5.2v0Zm.2,16.7c0-2.2-.97-3.833-2.9-4.9-1.33-.733-2.73-1.4-4.2-2l-.6-.3c-2.13,1.667-3.2,3.767-3.2,6.3c0,1.4.27,2.567.8,3.5c1.2,2,2.87,3,5,3c1.53,0,2.77-.533,3.7-1.6.93-1,1.4-2.333,1.4-4Zm31-2.6c0,1.8-.3,3.367-.9,4.7-1.2,2.6-3.2,4.4-6,5.4-1.07.4-2.43.6-4.1.6-3.4,0-6.03-1.3-7.9-3.9-.8-1.2-1.2-2.733-1.2-4.6c0-2.267.73-4.133,2.2-5.6.47-.467,1.53-1.133,3.2-2-3.07-1.733-4.6-4.167-4.6-7.3c0-3.533,1.63-6.133,4.9-7.8c1.4-.733,2.97-1.1,4.7-1.1c2.67,0,4.73.667,6.2,2c1.47,1.2,2.2,2.833,2.2,4.9c0,2.667-1.47,4.867-4.4,6.6c2.13.933,3.63,2.067,4.5,3.4.8,1.2,1.2,2.767,1.2,4.7v0Zm-5.2-14.1c0-1.467-.47-2.667-1.4-3.6-.87-.933-2.07-1.4-3.6-1.4-1.33,0-2.4.433-3.2,1.3-.73.8-1.13,1.8-1.2,3c0,1.133.5,2.167,1.5,3.1.53.533,1.3,1.033,2.3,1.5.33.2.87.467,1.6.8l1.2.5c1.87-1.2,2.8-2.933,2.8-5.2v0Zm.1,16.7c0-2.2-.97-3.833-2.9-4.9-1.27-.733-2.63-1.4-4.1-2l-.6-.3c-2.2,1.667-3.3,3.767-3.3,6.3c0,1.4.27,2.567.8,3.5c1.2,2,2.9,3,5.1,3c1.47,0,2.67-.533,3.6-1.6.93-1,1.4-2.333,1.4-4Z" clip-rule="evenodd" fill="#ff3618" fill-rule="evenodd"/><path d="M132.2,462c0,7.7-4.7,13-13,13-7.6,0-13.2-4.7-13.2-13c0-7.6,5-13.2,13.2-13.2c7.7,0,13,5,13,13.2Z" fill="#b71e25"/></g></g><script><![CDATA[!function(t,n){"object"==typeof exports&&"undefined"!=typeof module?module.exports=n():"function"==typeof define&&define.amd?define(n):((t="undefined"!=typeof globalThis?globalThis:t||self).__SVGATOR_PLAYER__=t.__SVGATOR_PLAYER__||{},t.__SVGATOR_PLAYER__["5c7f360c"]=n())}(this,(function(){"use strict";function t(t,n){var r=Object.keys(t);if(Object.getOwnPropertySymbols){var e=Object.getOwnPropertySymbols(t);n&&(e=e.filter((function(n){return Object.getOwnPropertyDescriptor(t,n).enumerable}))),r.push.apply(r,e)}return r}function n(n){for(var r=1;r<arguments.length;r++){var e=null!=arguments[r]?arguments[r]:{};r%2?t(Object(e),!0).forEach((function(t){u(n,t,e[t])})):Object.getOwnPropertyDescriptors?Object.defineProperties(n,Object.getOwnPropertyDescriptors(e)):t(Object(e)).forEach((function(t){Object.defineProperty(n,t,Object.getOwnPropertyDescriptor(e,t))}))}return n}function r(t){return(r="function"==typeof Symbol&&"symbol"==typeof Symbol.iterator?function(t){return typeof t}:function(t){return t&&"function"==typeof Symbol&&t.constructor===Symbol&&t!==Symbol.prototype?"symbol":typeof t})(t)}function e(t,n){if(!(t instanceof n))throw new TypeError("Cannot call a class as a function")}function i(t,n){for(var r=0;r<n.length;r++){var e=n[r];e.enumerable=e.enumerable||!1,e.configurable=!0,"value"in e&&(e.writable=!0),Object.defineProperty(t,e.key,e)}}function o(t,n,r){return n&&i(t.prototype,n),r&&i(t,r),t}function u(t,n,r){return n in t?Object.defineProperty(t,n,{value:r,enumerable:!0,configurable:!0,writable:!0}):t[n]=r,t}function a(t){return(a=Object.setPrototypeOf?Object.getPrototypeOf:function(t){return t.__proto__||Object.getPrototypeOf(t)})(t)}function l(t,n){return(l=Object.setPrototypeOf||function(t,n){return t.__proto__=n,t})(t,n)}function f(){if("undefined"==typeof Reflect||!Reflect.construct)return!1;if(Reflect.construct.sham)return!1;if("function"==typeof Proxy)return!0;try{return Boolean.prototype.valueOf.call(Reflect.construct(Boolean,[],(function(){}))),!0}catch(t){return!1}}function s(t,n,r){return(s=f()?Reflect.construct:function(t,n,r){var e=[null];e.push.apply(e,n);var i=new(Function.bind.apply(t,e));return r&&l(i,r.prototype),i}).apply(null,arguments)}function c(t,n){if(n&&("object"==typeof n||"function"==typeof n))return n;if(void 0!==n)throw new TypeError("Derived constructors may only return object or undefined");return function(t){if(void 0===t)throw new ReferenceError("this hasn't been initialised - super() hasn't been called");return t}(t)}function h(t,n,r){return(h="undefined"!=typeof Reflect&&Reflect.get?Reflect.get:function(t,n,r){var e=function(t,n){for(;!Object.prototype.hasOwnProperty.call(t,n)&&null!==(t=a(t)););return t}(t,n);if(e){var i=Object.getOwnPropertyDescriptor(e,n);return i.get?i.get.call(r):i.value}})(t,n,r||t)}function v(t){return function(t){if(Array.isArray(t))return y(t)}(t)||function(t){if("undefined"!=typeof Symbol&&null!=t[Symbol.iterator]||null!=t["@@iterator"])return Array.from(t)}(t)||function(t,n){if(!t)return;if("string"==typeof t)return y(t,n);var r=Object.prototype.toString.call(t).slice(8,-1);"Object"===r&&t.constructor&&(r=t.constructor.name);if("Map"===r||"Set"===r)return Array.from(t);if("Arguments"===r||/^(?:Ui|I)nt(?:8|16|32)(?:Clamped)?Array$/.test(r))return y(t,n)}(t)||function(){throw new TypeError("Invalid attempt to spread non-iterable instance.\nIn order to be iterable, non-array objects must have a [Symbol.iterator]() method.")}()}function y(t,n){(null==n||n>t.length)&&(n=t.length);for(var r=0,e=new Array(n);r<n;r++)e[r]=t[r];return e}var g=d(Math.pow(10,-6));function d(t){var n=arguments.length>1&&void 0!==arguments[1]?arguments[1]:6;if(Number.isInteger(t))return t;var r=Math.pow(10,n);return Math.round((+t+Number.EPSILON)*r)/r}function p(t,n){var r=arguments.length>2&&void 0!==arguments[2]?arguments[2]:g;return Math.abs(t-n)<r}var m=Math.PI/180;function b(t){return t}function w(t,n,r){var e=1-r;return 3*r*e*(t*e+n*r)+r*r*r}function A(){var t=arguments.length>0&&void 0!==arguments[0]?arguments[0]:0,n=arguments.length>1&&void 0!==arguments[1]?arguments[1]:0,r=arguments.length>2&&void 0!==arguments[2]?arguments[2]:1,e=arguments.length>3&&void 0!==arguments[3]?arguments[3]:1;return t<0||t>1||r<0||r>1?null:p(t,n)&&p(r,e)?b:function(i){if(i<=0)return t>0?i*n/t:0===n&&r>0?i*e/r:0;if(i>=1)return r<1?1+(i-1)*(e-1)/(r-1):1===r&&t<1?1+(i-1)*(n-1)/(t-1):1;for(var o,u=0,a=1;u<a;){var l=w(t,r,o=(u+a)/2);if(p(i,l))break;l<i?u=o:a=o}return w(n,e,o)}}function x(){return 1}function k(t){return 1===t?1:0}function S(){var t=arguments.length>0&&void 0!==arguments[0]?arguments[0]:1,n=arguments.length>1&&void 0!==arguments[1]?arguments[1]:0;if(1===t){if(0===n)return k;if(1===n)return x}var r=1/t;return function(t){return t>=1?1:(t+=n*r)-t%r}}var _=Math.sin,O=Math.cos,j=Math.acos,M=Math.asin,P=Math.tan,E=Math.atan2,I=Math.PI/180,R=180/Math.PI,F=Math.sqrt,N=function(){function t(){var n=arguments.length>0&&void 0!==arguments[0]?arguments[0]:1,r=arguments.length>1&&void 0!==arguments[1]?arguments[1]:0,i=arguments.length>2&&void 0!==arguments[2]?arguments[2]:0,o=arguments.length>3&&void 0!==arguments[3]?arguments[3]:1,u=arguments.length>4&&void 0!==arguments[4]?arguments[4]:0,a=arguments.length>5&&void 0!==arguments[5]?arguments[5]:0;e(this,t),this.m=[n,r,i,o,u,a],this.i=null,this.w=null,this.s=null}return o(t,[{key:"determinant",get:function(){var t=this.m;return t[0]*t[3]-t[1]*t[2]}},{key:"isIdentity",get:function(){if(null===this.i){var t=this.m;this.i=1===t[0]&&0===t[1]&&0===t[2]&&1===t[3]&&0===t[4]&&0===t[5]}return this.i}},{key:"point",value:function(t,n){var r=this.m;return{x:r[0]*t+r[2]*n+r[4],y:r[1]*t+r[3]*n+r[5]}}},{key:"translateSelf",value:function(){var t=arguments.length>0&&void 0!==arguments[0]?arguments[0]:0,n=arguments.length>1&&void 0!==arguments[1]?arguments[1]:0;if(!t&&!n)return this;var r=this.m;return r[4]+=r[0]*t+r[2]*n,r[5]+=r[1]*t+r[3]*n,this.w=this.s=this.i=null,this}},{key:"rotateSelf",value:function(){var t=arguments.length>0&&void 0!==arguments[0]?arguments[0]:0;if(t%=360){var n=_(t*=I),r=O(t),e=this.m,i=e[0],o=e[1];e[0]=i*r+e[2]*n,e[1]=o*r+e[3]*n,e[2]=e[2]*r-i*n,e[3]=e[3]*r-o*n,this.w=this.s=this.i=null}return this}},{key:"scaleSelf",value:function(){var t=arguments.length>0&&void 0!==arguments[0]?arguments[0]:1,n=arguments.length>1&&void 0!==arguments[1]?arguments[1]:1;if(1!==t||1!==n){var r=this.m;r[0]*=t,r[1]*=t,r[2]*=n,r[3]*=n,this.w=this.s=this.i=null}return this}},{key:"skewSelf",value:function(t,n){if(n%=360,(t%=360)||n){var r=this.m,e=r[0],i=r[1],o=r[2],u=r[3];t&&(t=P(t*I),r[2]+=e*t,r[3]+=i*t),n&&(n=P(n*I),r[0]+=o*n,r[1]+=u*n),this.w=this.s=this.i=null}return this}},{key:"resetSelf",value:function(){var t=arguments.length>0&&void 0!==arguments[0]?arguments[0]:1,n=arguments.length>1&&void 0!==arguments[1]?arguments[1]:0,r=arguments.length>2&&void 0!==arguments[2]?arguments[2]:0,e=arguments.length>3&&void 0!==arguments[3]?arguments[3]:1,i=arguments.length>4&&void 0!==arguments[4]?arguments[4]:0,o=arguments.length>5&&void 0!==arguments[5]?arguments[5]:0,u=this.m;return u[0]=t,u[1]=n,u[2]=r,u[3]=e,u[4]=i,u[5]=o,this.w=this.s=this.i=null,this}},{key:"recomposeSelf",value:function(){var t=arguments.length>0&&void 0!==arguments[0]?arguments[0]:null,n=arguments.length>1&&void 0!==arguments[1]?arguments[1]:null,r=arguments.length>2&&void 0!==arguments[2]?arguments[2]:null,e=arguments.length>3&&void 0!==arguments[3]?arguments[3]:null,i=arguments.length>4&&void 0!==arguments[4]?arguments[4]:null;return this.isIdentity||this.resetSelf(),t&&(t.x||t.y)&&this.translateSelf(t.x,t.y),n&&this.rotateSelf(n),r&&(r.x&&this.skewSelf(r.x,0),r.y&&this.skewSelf(0,r.y)),!e||1===e.x&&1===e.y||this.scaleSelf(e.x,e.y),i&&(i.x||i.y)&&this.translateSelf(i.x,i.y),this}},{key:"decompose",value:function(){var t=arguments.length>0&&void 0!==arguments[0]?arguments[0]:0,n=arguments.length>1&&void 0!==arguments[1]?arguments[1]:0,r=this.m,e=r[0]*r[0]+r[1]*r[1],i=[[r[0],r[1]],[r[2],r[3]]],o=F(e);if(0===o)return{origin:{x:d(r[4]),y:d(r[5])},translate:{x:d(t),y:d(n)},scale:{x:0,y:0},skew:{x:0,y:0},rotate:0};i[0][0]/=o,i[0][1]/=o;var u=r[0]*r[3]-r[1]*r[2]<0;u&&(o=-o);var a=i[0][0]*i[1][0]+i[0][1]*i[1][1];i[1][0]-=i[0][0]*a,i[1][1]-=i[0][1]*a;var l=F(i[1][0]*i[1][0]+i[1][1]*i[1][1]);if(0===l)return{origin:{x:d(r[4]),y:d(r[5])},translate:{x:d(t),y:d(n)},scale:{x:d(o),y:0},skew:{x:0,y:0},rotate:0};i[1][0]/=l,i[1][1]/=l,a/=l;var f=0;return i[1][1]<0?(f=j(i[1][1])*R,i[0][1]<0&&(f=360-f)):f=M(i[0][1])*R,u&&(f=-f),a=E(a,F(i[0][0]*i[0][0]+i[0][1]*i[0][1]))*R,u&&(a=-a),{origin:{x:d(r[4]),y:d(r[5])},translate:{x:d(t),y:d(n)},scale:{x:d(o),y:d(l)},skew:{x:d(a),y:0},rotate:d(f)}}},{key:"clone",value:function(){var t=this.m;return new this.constructor(t[0],t[1],t[2],t[3],t[4],t[5])}},{key:"toString",value:function(){var t=arguments.length>0&&void 0!==arguments[0]?arguments[0]:" ";if(null===this.s){var n=this.m.map((function(t){return d(t)}));1===n[0]&&0===n[1]&&0===n[2]&&1===n[3]?this.s="translate("+n[4]+t+n[5]+")":this.s="matrix("+n.join(t)+")"}return this.s}}],[{key:"create",value:function(t){return t?Array.isArray(t)?s(this,v(t)):t instanceof this?t.clone():(new this).recomposeSelf(t.origin,t.rotate,t.skew,t.scale,t.translate):new this}}]),t}();function T(t,n,r){return t>=.5?r:n}function B(t,n,r){return 0===t||n===r?n:t*(r-n)+n}function q(t,n,r){var e=B(t,n,r);return e<=0?0:e}function L(t,n,r){var e=B(t,n,r);return e<=0?0:e>=1?1:e}function C(t,n,r){return 0===t?n:1===t?r:{x:B(t,n.x,r.x),y:B(t,n.y,r.y)}}function D(t,n,r){var e=function(t,n,r){return Math.round(B(t,n,r))}(t,n,r);return e<=0?0:e>=255?255:e}function z(t,n,r){return 0===t?n:1===t?r:{r:D(t,n.r,r.r),g:D(t,n.g,r.g),b:D(t,n.b,r.b),a:B(t,null==n.a?1:n.a,null==r.a?1:r.a)}}function V(t,n){for(var r=[],e=0;e<t;e++)r.push(n);return r}function G(t,n){if(--n<=0)return t;var r=(t=Object.assign([],t)).length;do{for(var e=0;e<r;e++)t.push(t[e])}while(--n>0);return t}var Y,$=function(){function t(n){e(this,t),this.list=n,this.length=n.length}return o(t,[{key:"setAttribute",value:function(t,n){for(var r=this.list,e=0;e<this.length;e++)r[e].setAttribute(t,n)}},{key:"removeAttribute",value:function(t){for(var n=this.list,r=0;r<this.length;r++)n[r].removeAttribute(t)}},{key:"style",value:function(t,n){for(var r=this.list,e=0;e<this.length;e++)r[e].style[t]=n}}]),t}(),U=/-./g,Q=function(t,n){return n.toUpperCase()};function H(t){return"function"==typeof t?t:T}function J(t){return t?"function"==typeof t?t:Array.isArray(t)?function(t){var n=arguments.length>1&&void 0!==arguments[1]?arguments[1]:b;if(!Array.isArray(t))return n;switch(t.length){case 1:return S(t[0])||n;case 2:return S(t[0],t[1])||n;case 4:return A(t[0],t[1],t[2],t[3])||n}return n}(t,null):function(t,n){var r=arguments.length>2&&void 0!==arguments[2]?arguments[2]:b;switch(t){case"linear":return b;case"steps":return S(n.steps||1,n.jump||0)||r;case"bezier":case"cubic-bezier":return A(n.x1||0,n.y1||0,n.x2||0,n.y2||0)||r}return r}(t.type,t.value,null):null}function Z(t,n,r){var e=arguments.length>3&&void 0!==arguments[3]&&arguments[3],i=n.length-1;if(t<=n[0].t)return e?[0,0,n[0].v]:n[0].v;if(t>=n[i].t)return e?[i,1,n[i].v]:n[i].v;var o,u=n[0],a=null;for(o=1;o<=i;o++){if(!(t>n[o].t)){a=n[o];break}u=n[o]}return null==a?e?[i,1,n[i].v]:n[i].v:u.t===a.t?e?[o,1,a.v]:a.v:(t=(t-u.t)/(a.t-u.t),u.e&&(t=u.e(t)),e?[o,t,r(t,u.v,a.v)]:r(t,u.v,a.v))}function K(t,n){var r=arguments.length>2&&void 0!==arguments[2]?arguments[2]:null;return t&&t.length?"function"!=typeof n?null:("function"!=typeof r&&(r=null),function(e){var i=Z(e,t,n);return null!=i&&r&&(i=r(i)),i}):null}function W(t,n){return t.t-n.t}function X(t,n,e,i,o){var u,a="@"===e[0],l="#"===e[0],f=Y[e],s=T;switch(a?(u=e.substr(1),e=u.replace(U,Q)):l&&(e=e.substr(1)),r(f)){case"function":if(s=f(i,o,Z,J,e,a,n,t),l)return s;break;case"string":s=K(i,H(f));break;case"object":if((s=K(i,H(f.i),f.f))&&"function"==typeof f.u)return f.u(n,s,e,a,t)}return s?function(t,n,r){if(arguments.length>3&&void 0!==arguments[3]&&arguments[3])return t instanceof $?function(e){return t.style(n,r(e))}:function(e){return t.style[n]=r(e)};if(Array.isArray(n)){var e=n.length;return function(i){var o=r(i);if(null==o)for(var u=0;u<e;u++)t[u].removeAttribute(n);else for(var a=0;a<e;a++)t[a].setAttribute(n,o)}}return function(e){var i=r(e);null==i?t.removeAttribute(n):t.setAttribute(n,i)}}(n,e,s,a):null}function tt(t,n,e,i){if(!i||"object"!==r(i))return null;var o=null,u=null;return Array.isArray(i)?u=function(t){if(!t||!t.length)return null;for(var n=0;n<t.length;n++)t[n].e&&(t[n].e=J(t[n].e));return t.sort(W)}(i):(u=i.keys,o=i.data||null),u?X(t,n,e,u,o):null}function nt(t,n,r){if(!r)return null;var e=[];for(var i in r)if(r.hasOwnProperty(i)){var o=tt(t,n,i,r[i]);o&&e.push(o)}return e.length?e:null}function rt(t,n){if(!n.duration||n.duration<0)return null;var r=function(t,n){if(!n)return null;var r=[];if(Array.isArray(n))for(var e=n.length,i=0;i<e;i++){var o=n[i];if(2===o.length){var u=null;if("string"==typeof o[0])u=t.getElementById(o[0]);else if(Array.isArray(o[0])){u=[];for(var a=0;a<o[0].length;a++)if("string"==typeof o[0][a]){var l=t.getElementById(o[0][a]);l&&u.push(l)}u=u.length?1===u.length?u[0]:new $(u):null}if(u){var f=nt(t,u,o[1]);f&&(r=r.concat(f))}}}else for(var s in n)if(n.hasOwnProperty(s)){var c=t.getElementById(s);if(c){var h=nt(t,c,n[s]);h&&(r=r.concat(h))}}return r.length?r:null}(t,n.elements);return r?function(t,n){var r=arguments.length>2&&void 0!==arguments[2]?arguments[2]:1/0,e=arguments.length>3&&void 0!==arguments[3]?arguments[3]:1,i=arguments.length>4&&void 0!==arguments[4]&&arguments[4],o=arguments.length>5&&void 0!==arguments[5]?arguments[5]:1,u=t.length,a=e>0?n:0;i&&r%2==0&&(a=n-a);var l=null;return function(f,s){var c=f%n,h=1+(f-c)/n;s*=e,i&&h%2==0&&(s=-s);var v=!1;if(h>r)c=a,v=!0,-1===o&&(c=e>0?0:n);else if(s<0&&(c=n-c),c===l)return!1;l=c;for(var y=0;y<u;y++)t[y](c);return v}}(r,n.duration,n.iterations||1/0,n.direction||1,!!n.alternate,n.fill||1):null}function et(t){return+("0x"+(t.replace(/[^0-9a-fA-F]+/g,"")||27))}function it(t,n,r){return!t||!r||n>t.length?t:t.substring(0,n)+it(t.substring(n+1),r,r)}function ot(t){var n=arguments.length>1&&void 0!==arguments[1]?arguments[1]:27;return!t||t%n?t%n:ot(t/n,n)}function ut(t,n,r){if(t&&t.length){var e=et(r),i=et(n),o=ot(e)+5,u=it(t,ot(e,5),o);return u=u.replace(/\x7c$/g,"==").replace(/\x2f$/g,"="),u=function(t,n,r){var e=+("0x"+t.substring(0,4));t=t.substring(4);for(var i=n%e+r%27,o=[],u=0;u<t.length;u+=2)if("|"!==t[u]){var a=+("0x"+t[u]+t[u+1])-i;o.push(a)}else{var l=+("0x"+t.substring(u+1,u+1+4))-i;u+=3,o.push(l)}return String.fromCharCode.apply(String,o)}(u=(u=atob(u)).replace(/[\x41-\x5A]/g,""),i,e),u=JSON.parse(u)}}Number.isInteger||(Number.isInteger=function(t){return"number"==typeof t&&isFinite(t)&&Math.floor(t)===t}),Number.EPSILON||(Number.EPSILON=2220446049250313e-31);var at=function(){function t(n,r){var i=arguments.length>2&&void 0!==arguments[2]?arguments[2]:{};e(this,t),this._id=0,this._running=!1,this._rollingBack=!1,this._animations=n,this.duration=r.duration,this.alternate=r.alternate,this.fill=r.fill,this.iterations=r.iterations,this.direction=i.direction||1,this.speed=i.speed||1,this.fps=i.fps||100,this.offset=i.offset||0,this.rollbackStartOffset=0}return o(t,[{key:"_rollback",value:function(){var t=this,n=1/0,r=null;this.rollbackStartOffset=this.offset,this._rollingBack||(this._rollingBack=!0,this._running=!0);this._id=window.requestAnimationFrame((function e(i){if(t._rollingBack){null==r&&(r=i);var o=i-r,u=t.rollbackStartOffset-o,a=Math.round(u*t.speed);if(a>t.duration&&n!=1/0){var l=!!t.alternate&&a/t.duration%2>1,f=a%t.duration;a=(f+=l?t.duration:0)||t.duration}var s=t.fps?1e3/t.fps:0,c=Math.max(0,a);if(c<n-s){t.offset=c,n=c;for(var h=t._animations,v=h.length,y=0;y<v;y++)h[y](c,t.direction)}var g=!1;if(t.iterations>0&&-1===t.fill){var d=t.iterations*t.duration,p=d==a;a=p?0:a,t.offset=p?0:t.offset,g=a>d}a>0&&t.offset>=a&&!g?t._id=window.requestAnimationFrame(e):t.stop()}}))}},{key:"_start",value:function(){var t=this,n=arguments.length>0&&void 0!==arguments[0]?arguments[0]:0,r=-1/0,e=null,i={},o=function o(u){t._running=!0,null==e&&(e=u);var a=Math.round((u-e+n)*t.speed),l=t.fps?1e3/t.fps:0;if(a>r+l&&!t._rollingBack){t.offset=a,r=a;for(var f=t._animations,s=f.length,c=0,h=0;h<s;h++)i[h]?c++:(i[h]=f[h](a,t.direction),i[h]&&c++);if(c===s)return void t._stop()}t._id=window.requestAnimationFrame(o)};this._id=window.requestAnimationFrame(o)}},{key:"_stop",value:function(){this._id&&window.cancelAnimationFrame(this._id),this._running=!1,this._rollingBack=!1}},{key:"play",value:function(){!this._rollingBack&&this._running||(this._rollingBack=!1,this.rollbackStartOffset>this.duration&&(this.offset=this.rollbackStartOffset-(this.rollbackStartOffset-this.offset)%this.duration,this.rollbackStartOffset=0),this._start(this.offset))}},{key:"stop",value:function(){this._stop(),this.offset=0,this.rollbackStartOffset=0;var t=this.direction,n=this._animations;window.requestAnimationFrame((function(){for(var r=0;r<n.length;r++)n[r](0,t)}))}},{key:"reachedToEnd",value:function(){return this.iterations>0&&this.offset>=this.iterations*this.duration}},{key:"restart",value:function(){this._stop(),this.offset=0,this._start()}},{key:"pause",value:function(){this._stop()}},{key:"reverse",value:function(){this.direction=-this.direction}}],[{key:"build",value:function(r,e){return delete r.animationSettings,r.options=ut(r.options,r.root,"5c7f360c"),r.animations.map((function(t){var e=ut(t.s,r.root,"5c7f360c");for(var i in delete t.s,r.animationSettings||(r.animationSettings=n({},e)),e)e.hasOwnProperty(i)&&(t[i]=e[i])})),(r=function(t,n){if(Y=n,!t||!t.root||!Array.isArray(t.animations))return null;for(var r=document.getElementsByTagName("svg"),e=!1,i=0;i<r.length;i++)if(r[i].id===t.root&&!r[i].svgatorAnimation){(e=r[i]).svgatorAnimation=!0;break}if(!e)return null;var o=t.animations.map((function(t){return rt(e,t)})).filter((function(t){return!!t}));return o.length?{element:e,animations:o,animationSettings:t.animationSettings,options:t.options||void 0}:null}(r,e))?{el:r.element,options:r.options||{},player:new t(r.animations,r.animationSettings,r.options)}:null}},{key:"push",value:function(t){return this.build(t)}},{key:"init",value:function(){var t=this,n=window.__SVGATOR_PLAYER__&&window.__SVGATOR_PLAYER__["5c7f360c"];Array.isArray(n)&&n.splice(0).forEach((function(n){return t.build(n)}))}}]),t}();function lt(t){return d(t)+""}function ft(t){var n=arguments.length>1&&void 0!==arguments[1]?arguments[1]:" ";return t&&t.length?t.map(lt).join(n):""}function st(t){if(!t)return"transparent";if(null==t.a||t.a>=1){var n=function(t){return 1===(t=parseInt(t).toString(16)).length?"0"+t:t},r=function(t){return t.charAt(0)===t.charAt(1)},e=n(t.r),i=n(t.g),o=n(t.b);return r(e)&&r(i)&&r(o)&&(e=e.charAt(0),i=i.charAt(0),o=o.charAt(0)),"#"+e+i+o}return"rgba("+t.r+","+t.g+","+t.b+","+t.a+")"}function ct(t){return t?"url(#"+t+")":"none"}!function(){for(var t=0,n=["ms","moz","webkit","o"],r=0;r<n.length&&!window.requestAnimationFrame;++r)window.requestAnimationFrame=window[n[r]+"RequestAnimationFrame"],window.cancelAnimationFrame=window[n[r]+"CancelAnimationFrame"]||window[n[r]+"CancelRequestAnimationFrame"];window.requestAnimationFrame||(window.requestAnimationFrame=function(n){var r=Date.now(),e=Math.max(0,16-(r-t)),i=window.setTimeout((function(){n(r+e)}),e);return t=r+e,i},window.cancelAnimationFrame=window.clearTimeout)}();var ht={f:null,i:function(t,n,r){return 0===t?n:1===t?r:{x:q(t,n.x,r.x),y:q(t,n.y,r.y)}},u:function(t,n){return function(r){var e=n(r);t.setAttribute("rx",lt(e.x)),t.setAttribute("ry",lt(e.y))}}},vt={f:null,i:function(t,n,r){return 0===t?n:1===t?r:{width:q(t,n.width,r.width),height:q(t,n.height,r.height)}},u:function(t,n){return function(r){var e=n(r);t.setAttribute("width",lt(e.width)),t.setAttribute("height",lt(e.height))}}};Object.freeze({M:2,L:2,Z:0,H:1,V:1,C:6,Q:4,T:2,S:4,A:7});var yt={},gt=null;function dt(t){var n=function(){if(gt)return gt;if("object"!==("undefined"==typeof document?"undefined":r(document))||!document.createElementNS)return{};var t=document.createElementNS("http://www.w3.org/2000/svg","svg");return t&&t.style?(t.style.position="absolute",t.style.opacity="0.01",t.style.zIndex="-9999",t.style.left="-9999px",t.style.width="1px",t.style.height="1px",gt={svg:t}):{}}().svg;if(!n)return function(t){return null};var e=document.createElementNS(n.namespaceURI,"path");e.setAttributeNS(null,"d",t),e.setAttributeNS(null,"fill","none"),e.setAttributeNS(null,"stroke","none"),n.appendChild(e);var i=e.getTotalLength();return function(t){var n=e.getPointAtLength(i*t);return{x:n.x,y:n.y}}}function pt(t){return yt[t]?yt[t]:yt[t]=dt(t)}function mt(t,n,r,e){if(!t||!e)return!1;var i=["M",t.x,t.y];if(n&&r&&(i.push("C"),i.push(n.x),i.push(n.y),i.push(r.x),i.push(r.y)),n?!r:r){var o=n||r;i.push("Q"),i.push(o.x),i.push(o.y)}return n||r||i.push("L"),i.push(e.x),i.push(e.y),i.join(" ")}function bt(t,n,r,e){var i=arguments.length>4&&void 0!==arguments[4]?arguments[4]:1,o=mt(t,n,r,e),u=pt(o);try{return u(i)}catch(t){return null}}function wt(t,n,r){return t+(n-t)*r}function At(t,n,r){var e=arguments.length>3&&void 0!==arguments[3]&&arguments[3],i={x:wt(t.x,n.x,r),y:wt(t.y,n.y,r)};return e&&(i.a=xt(t,n)),i}function xt(t,n){return Math.atan2(n.y-t.y,n.x-t.x)}function kt(t,n,r,e){var i=1-e;return i*i*t+2*i*e*n+e*e*r}function St(t,n,r,e){return 2*(1-e)*(n-t)+2*e*(r-n)}function _t(t,n,r,e){var i=arguments.length>4&&void 0!==arguments[4]&&arguments[4],o=bt(t,n,null,r,e);return o||(o={x:kt(t.x,n.x,r.x,e),y:kt(t.y,n.y,r.y,e)}),i&&(o.a=Ot(t,n,r,e)),o}function Ot(t,n,r,e){return Math.atan2(St(t.y,n.y,r.y,e),St(t.x,n.x,r.x,e))}function jt(t,n,r,e,i){var o=i*i;return i*o*(e-t+3*(n-r))+3*o*(t+r-2*n)+3*i*(n-t)+t}function Mt(t,n,r,e,i){var o=1-i;return 3*(o*o*(n-t)+2*o*i*(r-n)+i*i*(e-r))}function Pt(t,n,r,e,i){var o=arguments.length>5&&void 0!==arguments[5]&&arguments[5],u=bt(t,n,r,e,i);return u||(u={x:jt(t.x,n.x,r.x,e.x,i),y:jt(t.y,n.y,r.y,e.y,i)}),o&&(u.a=Et(t,n,r,e,i)),u}function Et(t,n,r,e,i){return Math.atan2(Mt(t.y,n.y,r.y,e.y,i),Mt(t.x,n.x,r.x,e.x,i))}function It(t,n,r){var e=arguments.length>3&&void 0!==arguments[3]&&arguments[3];if(Ft(n)){if(Nt(r))return _t(n,r.start,r,t,e)}else if(Ft(r)){if(n.end)return _t(n,n.end,r,t,e)}else{if(n.end)return r.start?Pt(n,n.end,r.start,r,t,e):_t(n,n.end,r,t,e);if(r.start)return _t(n,r.start,r,t,e)}return At(n,r,t,e)}function Rt(t,n,r){var e=It(t,n,r,!0);return e.a=function(t){return arguments.length>1&&void 0!==arguments[1]&&arguments[1]?t+Math.PI:t}(e.a)/m,e}function Ft(t){return!t.type||"corner"===t.type}function Nt(t){return null!=t.start&&!Ft(t)}var Tt=new N;var Bt={f:lt,i:B},qt={f:lt,i:L};function Lt(t,n,r){return t.map((function(t){return function(t,n,r){var e=t.v;if(!e||"g"!==e.t||e.s||!e.v||!e.r)return t;var i=r.getElementById(e.r),o=i&&i.querySelectorAll("stop")||[];return e.s=e.v.map((function(t,n){var r=o[n]&&o[n].getAttribute("offset");return{c:t,o:r=d(parseInt(r)/100)}})),delete e.v,t}(t,0,r)}))}var Ct={gt:"gradientTransform",c:{x:"cx",y:"cy"},rd:"r",f:{x:"x1",y:"y1"},to:{x:"x2",y:"y2"}};function Dt(t,n,e,i,o,u,a,l){return Lt(t,0,l),n=function(t,n,r){for(var e,i,o,u=t.length-1,a={},l=0;l<=u;l++)(e=t[l]).e&&(e.e=n(e.e)),e.v&&"g"===(i=e.v).t&&i.r&&(o=r.getElementById(i.r))&&(a[i.r]={e:o,s:o.querySelectorAll("stop")});return a}(t,i,l),function(i){var o=e(i,t,zt);if(!o)return"none";if("c"===o.t)return st(o.v);if("g"===o.t){if(!n[o.r])return ct(o.r);var u=n[o.r];return function(t,n){for(var r=t.s,e=r.length;e<n.length;e++){var i=r[r.length-1].cloneNode();i.id=Yt(i.id),t.e.appendChild(i),r=t.s=t.e.querySelectorAll("stop")}for(var o=0,u=r.length,a=n.length-1;o<u;o++)r[o].setAttribute("stop-color",st(n[Math.min(o,a)].c)),r[o].setAttribute("offset",n[Math.min(o,a)].o)}(u,o.s),Object.keys(Ct).forEach((function(t){if(void 0!==o[t])if("object"!==r(Ct[t])){var n,e="gt"===t?(n=o[t],Array.isArray(n)?"matrix("+n.join(" ")+")":""):o[t],i=Ct[t];u.e.setAttribute(i,e)}else Object.keys(Ct[t]).forEach((function(n){if(void 0!==o[t][n]){var r=o[t][n],e=Ct[t][n];u.e.setAttribute(e,r)}}))})),ct(o.r)}return"none"}}function zt(t,r,e){if(0===t)return r;if(1===t)return e;if(r&&e){var i=r.t;if(i===e.t)switch(r.t){case"c":return{t:i,v:z(t,r.v,e.v)};case"g":if(r.r===e.r){var o={t:i,s:Vt(t,r.s,e.s),r:r.r};return r.gt&&e.gt&&(o.gt=function(t,n,r){var e=n.length;if(e!==r.length)return T(t,n,r);for(var i=new Array(e),o=0;o<e;o++)i[o]=B(t,n[o],r[o]);return i}(t,r.gt,e.gt)),r.c?(o.c=C(t,r.c,e.c),o.rd=q(t,r.rd,e.rd)):r.f&&(o.f=C(t,r.f,e.f),o.to=C(t,r.to,e.to)),o}}if("c"===r.t&&"g"===e.t||"c"===e.t&&"g"===r.t){var u="c"===r.t?r:e,a="g"===r.t?n({},r):n({},e),l=a.s.map((function(t){return{c:u.v,o:t.o}}));return a.s="c"===r.t?Vt(t,l,a.s):Vt(t,a.s,l),a}}return T(t,r,e)}function Vt(t,n,r){if(n.length===r.length)return n.map((function(n,e){return Gt(t,n,r[e])}));for(var e=Math.max(n.length,r.length),i=[],o=0;o<e;o++){var u=Gt(t,n[Math.min(o,n.length-1)],r[Math.min(o,r.length-1)]);i.push(u)}return i}function Gt(t,n,r){return{o:L(t,n.o,r.o||0),c:z(t,n.c,r.c||{})}}function Yt(t){return t.replace(/-fill-([0-9]+)$/,(function(t,n){return"-fill-"+(+n+1)}))}var $t={fill:Dt,"fill-opacity":qt,stroke:Dt,"stroke-opacity":qt,"stroke-width":Bt,"stroke-dashoffset":{f:lt,i:B},"stroke-dasharray":{f:function(t){var n=arguments.length>1&&void 0!==arguments[1]?arguments[1]:" ";return t&&t.length>0&&(t=t.map((function(t){return d(t,4)}))),ft(t,n)},i:function(t,n,r){var e,i,o,u=n.length,a=r.length;if(u!==a)if(0===u)n=V(u=a,0);else if(0===a)a=u,r=V(u,0);else{var l=(o=(e=u)*(i=a)/function(t,n){for(var r;n;)r=n,n=t%n,t=r;return t||1}(e,i))<0?-o:o;n=G(n,Math.floor(l/u)),r=G(r,Math.floor(l/a)),u=a=l}for(var f=[],s=0;s<u;s++)f.push(d(q(t,n[s],r[s])));return f}},opacity:qt,transform:function(t,n,e,i){if(!(t=function(t,n){if(!t||"object"!==r(t))return null;var e=!1;for(var i in t)t.hasOwnProperty(i)&&(t[i]&&t[i].length?(t[i].forEach((function(t){t.e&&(t.e=n(t.e))})),e=!0):delete t[i]);return e?t:null}(t,i)))return null;var o=function(r,i,o){var u=arguments.length>3&&void 0!==arguments[3]?arguments[3]:null;return t[r]?e(i,t[r],o):n&&n[r]?n[r]:u};return n&&n.a&&t.o?function(n){var r=e(n,t.o,Rt);return Tt.recomposeSelf(r,o("r",n,B,0)+r.a,o("k",n,C),o("s",n,C),o("t",n,C)).toString()}:function(t){return Tt.recomposeSelf(o("o",t,It,null),o("r",t,B,0),o("k",t,C),o("s",t,C),o("t",t,C)).toString()}},r:Bt,"#size":vt,"#radius":ht,_:function(t,n){if(Array.isArray(t))for(var r=0;r<t.length;r++)this[t[r]]=n;else this[t]=n}},Ut=function(t){!function(t,n){if("function"!=typeof n&&null!==n)throw new TypeError("Super expression must either be null or a function");t.prototype=Object.create(n&&n.prototype,{constructor:{value:t,writable:!0,configurable:!0}}),n&&l(t,n)}(u,t);var n,r,i=(n=u,r=f(),function(){var t,e=a(n);if(r){var i=a(this).constructor;t=Reflect.construct(e,arguments,i)}else t=e.apply(this,arguments);return c(this,t)});function u(){return e(this,u),i.apply(this,arguments)}return o(u,null,[{key:"build",value:function(t){var n=h(a(u),"build",this).call(this,t,$t);if(!n)return null;n.el,n.options,function(t,n,r){t.play()}(n.player)}}]),u}(at);return Ut.init(),Ut}));
(function(s,i,o,w){w[o]=w[o]||{};w[o][s]=w[o][s]||[];w[o][s].push(i);})('5c7f360c',{"root":"ep8D9Jtn2y41","animations":[{"elements":{"ep8D9Jtn2y43":{"transform":{"data":{"o":{"x":329.599991,"y":141.449997,"type":"corner"},"t":{"x":-329.599991,"y":-141.449997}},"keys":{"r":[{"t":0,"v":1800},{"t":10000,"v":3600}]}}}},"s":"MFDA1NDljNDM4NU85NjFkzODI5NThhSjkwOGYF0M1Y1YjUyNTE1MTUxCNTE0ZDQzODU4YTkzOADY4NDk1OGE5MDhmNDEM1YjUyNGQ0MzhhOTUQ4Nlk5MzgyOTU4YTkwNOGY5NDQzNWI1MVA0ZCDQzODc4YThkOGQ0MzUViNTI0ZDQzODI4ZDkI1ODY5MzhmODJQOTU4ONjQzNWI4NzgyVDhkOBTQ4NjRkNDM5NDkxODAY4Njg1NDM1YjUyOWUK/"}],"options":"MODAxMDg4MmY4MDgxNmGU3ZjgxMmY0NzJmNzkF3Y0o2ZTcxMmZJOGE/K"},'__SVGATOR_PLAYER__',window)]]></script></svg>