<svg width="426" height="470" viewBox="0 0 426 470" fill="none" xmlns="http://www.w3.org/2000/svg">
<path d="M209.024 310.705C208.172 310.918 207.32 310.989 206.468 310.989C206.326 310.989 206.184 310.989 206.042 310.989C200.078 310.776 194.54 306.09 191.132 299.842C176.009 272.01 171.891 254.828 166.424 236.013C165.075 231.327 165.43 226.57 167.418 223.162C168.98 220.535 171.465 218.618 174.873 218.263C175.299 218.192 175.654 218.192 176.08 218.192C182.115 218.192 188.434 223.02 190.919 229.268L216.834 292.742C220.1 300.765 216.55 309.001 209.024 310.705Z" fill="#FFB96C"/>
<path d="M206.042 310.989C200.078 310.776 194.54 306.09 191.132 299.842C176.009 272.01 171.891 254.828 166.424 236.013C165.075 231.327 165.43 226.57 167.418 223.162C174.163 239.492 196.315 293.097 203.131 305.593C204.196 307.581 205.19 309.356 206.042 310.989Z" fill="#FCAF63"/>
<path d="M241.542 301.121C240.903 302.754 240.051 304.032 239.199 304.671C234.087 308.718 229.046 309.641 220.597 311.487C212.148 313.333 203.415 312.907 199.368 309.073C198.019 307.795 197.025 306.375 196.457 304.884C194.682 300.624 196.244 296.151 201.285 294.234C204.267 293.098 231.389 286.708 235.862 287.56C243.601 289.051 243.459 296.364 241.542 301.121Z" fill="#FFB96C"/>
<path d="M241.542 301.12C240.903 302.753 240.051 304.031 239.199 304.67C234.087 308.717 229.046 309.64 220.597 311.486C212.148 313.332 203.415 312.906 199.368 309.072C198.019 307.794 197.025 306.374 196.457 304.883C198.729 305.522 203.273 306.374 211.012 305.522C217.544 304.812 230.963 302.753 241.542 301.12Z" fill="#FCAF63"/>
<path d="M234.442 288.056C225.993 290.896 226.916 296.505 228.194 301.972C229.472 307.439 239.98 321.497 243.175 322.207C246.37 322.917 246.583 321.639 245.731 319.012C244.879 316.385 238.844 307.226 238.844 307.226C238.844 307.226 245.518 316.314 248.287 319.012C251.056 321.71 253.399 321.497 253.328 318.515C253.186 315.533 246.583 305.522 246.583 305.522C246.583 305.522 252.405 313.19 254.819 315.817C257.233 318.444 260.428 318.018 259.292 314.468C258.227 310.918 253.399 303.179 253.399 303.179C253.399 303.179 258.085 310.989 261.209 311.77C264.333 312.551 262.416 307.865 259.079 301.901C255.813 295.795 244.95 284.506 234.442 288.056Z" fill="#FEA691"/>
<path d="M227.342 295.866C227.342 295.866 225.567 302.824 226.703 308.93C227.839 315.036 229.756 316.243 231.034 316.527C232.312 316.811 232.738 315.178 232.099 312.551C231.46 309.924 233.164 304.741 233.164 304.741C233.164 304.741 231.318 294.304 227.342 295.866Z" fill="#FEA691"/>
<path d="M193.901 318.16H122.262C122.262 318.16 112.393 249.148 118.641 232.179C120.416 227.351 122.759 223.446 125.457 220.18C132.202 211.944 140.864 208.181 146.757 206.69C154.496 204.702 161.241 204.631 167.063 206.051C182.541 209.743 191.132 223.872 193.901 239.279C197.735 260.508 193.901 318.16 193.901 318.16Z" fill="#FEC272"/>
<path d="M147.396 220.535C138.024 222.949 129.433 222.665 125.386 220.18C132.131 211.944 140.793 208.181 146.686 206.69C154.425 204.702 161.17 204.631 166.992 206.051C168.27 210.879 159.466 217.411 147.396 220.535Z" fill="#F9B35F"/>
<path d="M141.29 236.723C141.29 237.859 141.219 238.995 141.006 240.06C138.095 258.946 121.339 304.386 121.339 304.386C120.132 308.007 117.576 310.705 114.452 312.196C111.328 313.616 107.707 313.9 104.228 312.551C98.832 310.421 96.276 305.309 96.276 299.7C96.276 298.493 96.418 297.286 96.631 296.079C101.53 269.596 110.263 247.657 117.434 232.179C120.558 225.363 128.226 221.103 134.971 224.511C137.03 225.505 138.45 227.138 139.515 228.984C140.793 231.256 141.29 233.954 141.29 236.723Z" fill="#FFCD92"/>
<path d="M141.29 236.723C141.29 237.859 141.219 238.995 141.006 240.06C138.095 258.946 121.339 304.386 121.339 304.386C120.132 308.007 117.576 310.705 114.452 312.196L139.444 228.913C140.793 231.256 141.29 233.954 141.29 236.723Z" fill="#FCB765"/>
<path d="M163.655 312.054C162.093 315.888 156.981 316.03 156.981 316.03C156.981 316.03 142.639 316.882 130.214 316.882C117.789 316.882 105.577 316.882 100.607 311.273C99.613 310.137 98.832 308.859 98.406 307.51C96.56 302.327 98.903 296.15 106.287 293.026C111.612 290.754 117.718 291.535 124.392 292.174C131.066 292.813 143.917 295.795 151.372 297.783C158.898 299.7 163.371 301.617 164.01 308.717C164.223 310.066 164.01 311.131 163.655 312.054Z" fill="#FFCD92"/>
<path d="M163.655 312.054C162.093 315.888 156.981 316.03 156.981 316.03C156.981 316.03 142.639 316.882 130.214 316.882C117.789 316.882 105.577 316.882 100.607 311.273C99.613 310.137 98.832 308.859 98.406 307.51C103.944 309.214 111.399 311.202 117.363 311.699C134.19 313.119 156.484 312.409 163.655 312.054Z" fill="#FCB765"/>
<path d="M178.636 300.623C178.636 301.759 178.494 302.966 178.21 304.244C176.719 310.35 168.838 315.036 156.839 315.675C151.514 315.959 147.893 315.959 145.479 315.391C142.355 314.61 141.148 312.764 140.864 308.93C140.509 304.031 144.201 299.558 146.97 297.641C155.277 292.032 163.016 291.606 169.761 292.245C175.796 292.884 178.565 296.221 178.636 300.623Z" fill="#FEA691"/>
<path d="M178.636 300.623C178.636 301.759 178.494 302.966 178.21 304.244C176.719 310.35 168.838 315.036 156.839 315.675C151.514 315.959 147.893 315.959 145.479 315.391C145.195 314.681 144.982 313.829 144.911 312.764C144.556 308.575 148.035 304.67 150.733 303.037C158.614 298.209 165.998 297.783 172.388 298.422C175.228 298.635 177.287 299.416 178.636 300.623Z" fill="#FC8172"/>
<path d="M187.937 312.977C187.937 313.758 187.795 314.468 187.582 315.249H148.532C148.319 314.539 148.177 313.758 148.177 312.977C148.177 306.161 157.052 300.623 168.057 300.623C179.062 300.623 187.937 306.161 187.937 312.977Z" fill="#C7DCF9"/>
<path opacity="0.55" d="M187.085 314.042C187.085 314.468 187.014 314.823 186.801 315.249H151.088C150.875 314.823 150.804 314.468 150.804 314.042C150.804 310.421 158.898 307.439 168.909 307.439C178.991 307.439 187.085 310.421 187.085 314.042Z" fill="#C7DCF9"/>
<path d="M179.346 290.186C181.902 290.47 183.677 292.103 184.671 295.511C185.665 298.919 185.878 303.96 184.813 305.735C183.748 307.51 181.76 308.291 179.559 306.516C177.358 304.741 176.151 299.771 175.441 297.286C174.589 294.02 173.595 289.618 179.346 290.186Z" fill="#FEA691"/>
<path d="M169.832 288.553C172.601 288.837 173.737 291.18 174.802 294.73C175.867 298.28 176.08 303.676 174.944 305.593C173.808 307.439 171.678 308.291 169.335 306.445C166.992 304.599 165.643 299.274 164.933 296.647C164.01 293.168 163.584 287.985 169.832 288.553Z" fill="#FEA691"/>
<path d="M172.601 307.369C171.607 307.582 170.471 307.369 169.335 306.375C166.992 304.529 165.714 299.204 164.933 296.577C164.152 293.737 163.726 289.69 167.063 288.696C166.424 290.613 166.779 293.24 167.276 295.228C167.986 298.281 169.335 304.458 171.678 306.588C172.033 306.943 172.317 307.227 172.601 307.369Z" fill="#FF8D76"/>
<path d="M159.466 290.186C162.235 290.47 164.081 292.245 165.146 295.795C166.211 299.345 166.424 304.741 165.288 306.658C164.152 308.504 162.022 309.356 159.679 307.51C157.336 305.664 155.987 300.339 155.277 297.712C154.354 294.233 153.289 289.547 159.466 290.186Z" fill="#FEA691"/>
<path d="M162.235 308.504C161.454 308.504 160.602 308.149 159.75 307.439C157.407 305.593 156.129 300.268 155.348 297.641C154.638 294.943 153.786 291.535 156.413 290.399C156.2 292.174 156.697 294.446 157.194 296.292C158.046 299.487 159.537 306.019 162.164 308.362C162.164 308.504 162.164 308.504 162.235 308.504Z" fill="#FF8D76"/>
<path d="M150.165 292.174C152.579 291.464 154.425 294.091 155.348 297.357C156.271 300.623 156.555 305.593 155.49 307.297C154.496 309.001 152.508 309.782 150.378 308.078C148.248 306.374 147.68 303.108 147.041 300.694C146.189 297.57 145.479 293.594 150.165 292.174Z" fill="#FEA691"/>
<path d="M152.792 309.072C152.011 309.072 151.23 308.788 150.378 308.078C148.248 306.374 147.68 303.108 147.041 300.694C146.26 297.996 145.692 294.659 148.532 292.884C148.319 294.801 148.674 296.86 149.029 298.706C149.668 301.972 150.165 306.445 152.579 308.859C152.65 308.93 152.721 309.001 152.792 309.072Z" fill="#FF8D76"/>
<path d="M182.328 307.439C181.476 307.51 180.553 307.226 179.63 306.445C177.429 304.67 176.222 299.7 175.512 297.215C174.802 294.588 173.95 291.18 176.79 290.328C176.79 291.89 177.145 293.665 177.5 295.227C178.21 298.422 179.559 304.812 181.831 307.084C182.044 307.226 182.186 307.368 182.328 307.439Z" fill="#FF8D76"/>
<path d="M148.248 132.85C148.248 132.85 154.851 130.152 159.324 139.098C163.797 148.115 158.969 153.866 158.969 153.866C158.969 153.866 154.567 140.873 148.248 132.85Z" fill="#FF8D76"/>
<path d="M152.792 215.139C146.544 218.05 142.213 214.003 142.213 214.003L138.308 205.554L131.279 190.36C141.858 188.088 151.088 186.313 151.088 186.313L152.721 193.058L155.774 205.625C155.632 205.696 159.04 212.299 152.792 215.139Z" fill="#FEA691"/>
<path d="M152.65 193.129C151.727 194.478 150.733 195.898 149.526 197.247C146.473 200.868 142.071 203.637 138.237 205.554L131.208 190.36C141.787 188.088 151.017 186.313 151.017 186.313L152.65 193.129Z" fill="#FF8D76"/>
<path d="M146.856 191.987C162.672 182.374 165.966 158.908 154.214 139.574C142.462 120.241 120.115 112.361 104.3 121.974C88.4845 131.587 85.1904 155.053 96.942 174.387C108.694 193.72 131.041 201.6 146.856 191.987Z" fill="#FEA691"/>
<path d="M154.354 185.248C152.295 187.875 149.739 190.147 146.828 191.993C130.995 201.578 108.701 193.697 96.915 174.385C85.271 155.286 88.395 132.069 103.802 122.271C94.856 133.773 94.43 152.233 104.015 167.924C115.73 187.236 138.095 195.117 153.928 185.532C154.07 185.461 154.212 185.39 154.354 185.248Z" fill="#FF8D76"/>
<path d="M111.612 185.745C111.612 185.745 99.542 176.231 96.489 159.191C93.436 142.151 96.844 135.264 110.831 127.028C124.818 118.863 135.255 121.774 135.255 121.774C135.255 121.774 125.315 114.319 109.056 117.088C92.797 119.786 76.254 135.264 79.662 158.552C83.212 183.402 97.98 190.715 111.612 185.745Z" fill="#283575"/>
<path d="M126.238 141.228C124.321 142.577 127.019 149.748 132.841 155.073C138.663 160.398 144.272 157.629 144.414 152.375C144.556 146.979 132.841 136.542 126.238 141.228Z" fill="#F76F59"/>
<path d="M97.625 172.894C97.625 172.894 86.265 184.041 96.489 193.768C106.287 203.069 118.641 190.573 118.641 190.573C118.641 190.573 101.317 181.272 97.625 172.894Z" fill="#FF8D76"/>
<path d="M98.974 179.355C98.974 179.355 92.584 185.603 98.335 191.141C103.873 196.395 110.831 189.366 110.831 189.366C110.831 189.366 101.033 184.112 98.974 179.355Z" fill="#F76F59"/>
<path d="M133.835 120.851C133.835 120.851 135.042 99.409 122.83 90.676C109.056 80.878 101.317 95.007 105.861 106.58C107.849 111.763 109.979 114.887 111.683 116.733C113.245 118.437 115.375 119.431 117.647 119.573L133.835 120.851Z" fill="#283575"/>
<path d="M87.117 102.746C76.254 111.408 85.626 123.833 90.099 127.17C92.016 128.59 94.075 129.726 95.85 130.578C98.264 131.714 101.104 131.572 103.376 130.152L118.712 120.425C118.712 120.496 101.53 91.315 87.117 102.746Z" fill="#283575"/>
<path d="M112.89 88.333C109.482 88.759 113.245 95.291 118.215 96.143C123.185 96.995 121.623 87.268 112.89 88.333Z" fill="#3C4E8E"/>
<path d="M91.377 102.888C89.389 105.16 94.572 108.071 98.761 106.651C103.021 105.302 95.779 97.918 91.377 102.888Z" fill="#3C4E8E"/>
<path d="M154.567 168.35C154.212 169.06 153.715 169.699 153.005 170.267C150.378 172.326 148.39 175.308 146.97 178.432C145.692 181.201 142.426 184.467 139.373 182.124C139.018 181.84 138.663 181.556 138.379 181.13C135.184 177.083 136.391 166.646 141.361 162.031C145.195 158.481 149.952 159.404 152.366 161.392C154.709 163.167 155.703 166.007 154.567 168.35Z" fill="#F76F59"/>
<path d="M154.567 168.35C154.212 169.06 153.715 169.699 153.005 170.267C150.378 172.326 148.39 175.308 146.97 178.432C145.692 181.201 142.426 184.467 139.373 182.124C139.373 177.651 141.006 172.397 144.13 169.557C147.751 166.291 152.011 166.717 154.567 168.35Z" fill="#FF6EA9"/>
<path d="M110.618 156.067C108.346 156.067 106.571 155.357 106.429 155.286C105.506 154.931 105.08 153.866 105.435 152.943C105.79 152.02 106.855 151.594 107.778 151.949C107.849 151.949 111.754 153.511 113.884 151.168C116.653 148.257 113.742 144.494 113.671 144.352C113.032 143.571 113.174 142.435 113.955 141.796C114.736 141.157 115.872 141.299 116.511 142.08C118.215 144.281 120.416 149.464 116.511 153.582C114.736 155.499 112.535 156.067 110.618 156.067Z" fill="#1C3177"/>
<path d="M137.03 138.246C133.409 138.246 130.356 135.548 130.143 135.406C129.362 134.767 129.362 133.56 130.001 132.85C130.64 132.14 131.776 132.069 132.557 132.708C132.557 132.708 135.823 135.477 138.237 134.412C139.302 133.915 138.521 131.714 138.45 131.643C138.095 130.72 138.521 129.655 139.515 129.3C140.438 128.945 141.503 129.371 141.858 130.294C142.923 132.921 142.639 136.4 139.728 137.678C138.805 138.104 137.882 138.246 137.03 138.246Z" fill="#1C3177"/>
<path d="M101.104 151.807C101.033 151.807 100.962 151.807 100.891 151.807C99.897 151.665 99.187 150.813 99.258 149.819C99.258 149.606 99.755 145.346 102.737 141.015C105.648 136.684 108.63 135.193 108.772 135.122C109.695 134.696 110.76 135.051 111.186 135.974C111.612 136.897 111.257 137.962 110.334 138.388C110.334 138.388 108.062 139.595 105.719 143.003C103.305 146.553 102.879 150.103 102.879 150.174C102.808 151.097 102.027 151.807 101.104 151.807Z" fill="#1C3177"/>
<path d="M127.09 130.791C126.593 130.791 126.025 130.578 125.67 130.152C125.031 129.371 125.173 128.235 125.954 127.596C126.167 127.454 127.8 126.105 130.711 125.253C133.622 124.401 136.036 124.472 136.107 124.472C137.101 124.472 137.882 125.324 137.882 126.318C137.882 127.312 136.959 128.093 136.036 128.093C136.036 128.093 134.119 128.022 131.776 128.732C129.504 129.442 128.226 130.436 128.226 130.436C127.871 130.649 127.516 130.791 127.09 130.791Z" fill="#1C3177"/>
<path d="M359.189 325.473H69.793C66.953 325.473 64.681 323.201 64.681 320.361C64.681 317.521 66.953 315.249 69.793 315.249H359.189C362.029 315.249 364.301 317.521 364.301 320.361C364.301 323.13 362.029 325.473 359.189 325.473Z" fill="#99ADF9"/>
<path d="M358.692 325.473H111.541C108.701 325.473 106.429 323.201 106.429 320.361C106.429 317.521 108.701 315.249 111.541 315.249H358.692C361.532 315.249 363.804 317.521 363.804 320.361C363.875 323.13 361.532 325.473 358.692 325.473Z" fill="#789FEF"/>
<path d="M324.896 281.737H192.836C190.493 281.737 188.647 279.607 189.073 277.264L203.131 192.987C203.415 191.141 205.048 189.792 206.894 189.792H338.954C341.297 189.792 343.143 191.922 342.717 194.265L328.73 278.542C328.375 280.388 326.813 281.737 324.896 281.737Z" fill="#E1ECFF"/>
<path d="M327.736 281.737H197.38C195.037 281.737 193.191 279.607 193.617 277.264L207.675 192.987C207.959 191.141 209.592 189.792 211.438 189.792H341.794C344.137 189.792 345.983 191.922 345.557 194.265L331.499 278.542C331.215 280.388 329.582 281.737 327.736 281.737Z" fill="#C7DCF9"/>
<path d="M313.962 272.72H214.42C212.574 272.72 211.225 271.087 211.509 269.312L222.23 204.986C222.443 203.566 223.721 202.501 225.141 202.501H324.612C326.458 202.501 327.807 204.134 327.523 205.909L316.802 270.235C316.589 271.655 315.382 272.72 313.962 272.72Z" fill="#B7D4F7"/>
<path d="M271.433 309.995H253.328C251.624 309.995 250.346 308.575 250.488 306.871L255.245 259.656C255.387 258.236 256.594 257.1 258.085 257.1H276.19C277.894 257.1 279.172 258.52 279.03 260.224L274.273 307.439C274.131 308.93 272.924 309.995 271.433 309.995Z" fill="#E1ECFF"/>
<path d="M272.711 309.995H256.097C255.032 309.995 254.18 309.072 254.251 308.007L259.221 258.733C259.292 257.81 260.073 257.1 261.067 257.1H277.681C278.746 257.1 279.598 258.023 279.527 259.088L274.557 308.362C274.415 309.285 273.634 309.995 272.711 309.995Z" fill="#C7DCF9"/>
<path d="M301.537 315.178H226.135C224.573 315.178 223.295 313.9 223.295 312.338V306.09C223.295 304.528 224.573 303.25 226.135 303.25H301.537C303.099 303.25 304.377 304.528 304.377 306.09V312.338C304.377 313.9 303.099 315.178 301.537 315.178Z" fill="#E1ECFF"/>
<path d="M303.099 315.178H232.17C230.537 315.178 229.188 313.829 229.188 312.196V306.232C229.188 304.599 230.537 303.25 232.17 303.25H303.099C304.732 303.25 306.081 304.599 306.081 306.232V312.196C306.01 313.829 304.732 315.178 303.099 315.178Z" fill="#C7DCF9"/>
<path d="M356.065 178.077C355.355 178.574 354.432 178.929 353.438 178.929H285.42C282.012 178.929 279.882 175.379 281.444 172.326L306.152 124.827L315.24 107.361C316.944 104.166 321.488 104.166 323.192 107.361L357.414 172.326C358.55 174.456 357.769 176.87 356.065 178.077Z" fill="#FF97C9"/>
<path d="M356.065 178.077C355.355 178.574 354.432 178.929 353.438 178.929H285.42C282.012 178.929 279.882 175.379 281.444 172.326L306.152 124.827L298.626 164.8C297.987 168.208 300.33 171.403 303.809 171.829L356.065 178.077Z" fill="#FC72BB"/>
<path d="M316.092 153.511L312.542 128.093C312.4 127.241 313.11 126.46 313.962 126.46H324.044C324.896 126.46 325.535 127.241 325.464 128.093L321.914 153.511C321.843 154.221 321.204 154.718 320.494 154.718H317.441C316.731 154.789 316.163 154.221 316.092 153.511Z" fill="white"/>
<path d="M319.003 169.202C321.787 169.202 324.044 166.945 324.044 164.161C324.044 161.377 321.787 159.12 319.003 159.12C316.219 159.12 313.962 161.377 313.962 164.161C313.962 166.945 316.219 169.202 319.003 169.202Z" fill="white"/>
<path d="M134.687 66.252L135.965 68.879C136.107 69.234 136.462 69.447 136.817 69.447L139.657 69.873C140.58 70.015 140.935 71.08 140.225 71.719L138.166 73.707C137.882 73.991 137.811 74.346 137.882 74.701L138.379 77.541C138.521 78.393 137.598 79.103 136.817 78.677L134.261 77.328C133.977 77.186 133.551 77.186 133.267 77.328L130.711 78.677C129.93 79.103 129.007 78.393 129.149 77.541L129.646 74.701C129.717 74.346 129.575 73.991 129.362 73.707L127.303 71.719C126.664 71.08 127.019 70.015 127.871 69.873L130.711 69.447C131.066 69.376 131.35 69.163 131.563 68.879L132.841 66.252C133.125 65.471 134.261 65.471 134.687 66.252Z" fill="#FEC272"/>
<path d="M272.853 86.842C272.853 96.64 270.013 105.728 265.114 113.467C263.339 117.585 254.393 134.98 224.005 148.896C192.126 163.522 163.868 153.085 163.868 153.085C163.868 153.085 181.263 141.654 177.997 122.555C175.441 107.503 173.666 96.711 173.808 87.623C173.808 87.339 173.808 87.126 173.808 86.842C173.808 59.507 195.96 37.355 223.295 37.355C250.63 37.355 272.853 59.507 272.853 86.842Z" fill="#F0F6FF"/>
<path d="M169.051 119.715C166.424 112.97 163.797 113.254 162.022 114.532C160.389 115.739 160.034 119.928 162.022 123.904C164.01 127.88 165.998 127.596 167.986 126.531C169.974 125.466 170.258 122.839 169.051 119.715Z" fill="#C7DCF9"/>
<path d="M256.736 134.625C245.802 140.447 246.796 144.92 249.352 147.618C251.766 150.174 258.937 149.89 265.256 145.772C271.575 141.654 270.794 138.317 268.593 135.122C266.392 131.927 261.777 131.856 256.736 134.625Z" fill="#C7DCF9"/>
<path d="M258.866 102.178C258.866 104.876 257.588 107.574 255.174 109.207C249.92 112.899 241.542 118.366 232.312 123.194C226.419 126.318 221.307 128.732 217.189 130.507C213.781 131.998 210.018 131.714 206.965 130.01C204.906 128.874 203.202 127.099 202.137 124.827C201.427 123.265 201.001 121.561 201.001 119.857C201.001 118.437 201.285 117.017 201.782 115.597L202.066 114.816L214.278 83.86L197.948 92.664C193.404 95.078 187.795 93.516 185.168 89.043C185.097 88.901 185.026 88.759 184.955 88.617C184.245 87.197 183.89 85.706 183.89 84.215C183.89 81.091 185.452 77.967 188.292 76.192C193.475 72.855 201.001 68.311 209.947 63.554C227.129 54.395 235.649 55.531 238.063 60.146C240.477 64.832 226.632 104.024 226.632 104.024C226.632 104.024 245.163 94.723 247.151 94.013C251.411 92.38 256.168 94.368 258.085 98.486C258.511 99.409 258.724 100.403 258.795 101.397C258.866 101.752 258.866 101.965 258.866 102.178Z" fill="#99ADF9"/>
<path d="M219.461 78.748C215.343 88.901 205.616 112.26 202.208 114.887L214.42 83.931L198.09 92.735C193.546 95.22 187.795 93.587 185.239 89.043C185.381 88.901 185.239 89.043 185.381 88.901C187.014 89.682 189.925 90.392 194.256 88.262C202.35 84.428 211.58 79.387 216.905 76.476C218.396 75.695 220.1 77.186 219.461 78.748Z" fill="#7D9AF9"/>
<path d="M258.866 102.178C258.866 104.876 257.588 107.574 255.174 109.207C249.92 112.899 241.542 118.366 232.312 123.194C226.419 126.318 221.307 128.732 217.189 130.507C213.781 131.998 210.018 131.714 206.965 130.01C207.604 129.868 208.243 129.726 208.811 129.513C212.006 128.448 226.419 120.851 240.548 113.254C249.778 108.284 256.026 104.308 258.795 101.61C258.866 101.752 258.866 101.965 258.866 102.178Z" fill="#7D9AF9"/>
<path opacity="0.49" d="M223.082 59.436C216.692 61.566 213.426 65.542 221.094 65.116C228.762 64.69 232.809 60.785 231.46 59.507C230.111 58.3 225.993 58.442 223.082 59.436Z" fill="white"/>
<path opacity="0.49" d="M247.577 95.646C243.53 96.995 241.4 99.551 246.299 99.267C251.198 98.983 253.754 96.498 252.902 95.717C251.979 94.936 249.423 95.007 247.577 95.646Z" fill="white"/>
<path d="M187.003 378.584C187.003 376.322 186.99 374.84 186.964 374.138C186.912 373.072 186.769 372.305 186.535 371.837C186.301 371.343 185.924 371.044 185.404 370.94C184.884 370.862 184.143 370.823 183.181 370.823C182.063 370.823 181.335 370.875 180.997 370.979V364.895C181.231 364.869 181.582 364.856 182.05 364.856H183.181C186.093 364.856 188.342 365.09 189.928 365.558C191.54 366 192.71 366.741 193.438 367.781C194.114 368.743 194.53 370.004 194.686 371.564C194.868 373.124 194.959 375.464 194.959 378.584C194.959 381.314 194.894 383.42 194.764 384.902C194.66 386.358 194.374 387.567 193.906 388.529C193.386 389.621 192.58 390.453 191.488 391.025C190.422 391.597 188.927 391.974 187.003 392.156V378.584ZM183.181 392.312C179.385 392.312 176.655 391.896 174.991 391.064C174.133 390.648 173.457 390.089 172.963 389.387C172.469 388.685 172.105 387.814 171.871 386.774C171.663 385.864 171.533 384.824 171.481 383.654C171.429 382.458 171.403 380.768 171.403 378.584C171.403 375.854 171.455 373.761 171.559 372.305C171.689 370.849 171.988 369.627 172.456 368.639C172.976 367.573 173.769 366.754 174.835 366.182C175.901 365.61 177.409 365.22 179.359 365.012V378.584C179.359 380.118 179.385 381.587 179.437 382.991C179.489 384.057 179.619 384.837 179.827 385.331C180.061 385.825 180.438 386.111 180.958 386.189C181.4 386.293 182.141 386.345 183.181 386.345C184.247 386.345 184.975 386.306 185.365 386.228V392.273C185.131 392.299 184.78 392.312 184.312 392.312H183.181ZM210.14 382.094C210.14 380.768 210.127 379.884 210.101 379.442C210.075 378.818 209.997 378.35 209.867 378.038C209.737 377.7 209.529 377.492 209.243 377.414C208.931 377.336 208.502 377.297 207.956 377.297H207.41V371.798H207.956C210.218 371.798 211.986 371.98 213.26 372.344C214.534 372.682 215.483 373.254 216.107 374.06C216.679 374.788 217.043 375.763 217.199 376.985C217.381 378.181 217.472 379.884 217.472 382.094C217.472 384.148 217.407 385.747 217.277 386.891C217.173 388.009 216.9 388.932 216.458 389.66C215.964 390.466 215.223 391.077 214.235 391.493C213.247 391.883 211.882 392.13 210.14 392.234V382.094ZM207.956 392.312C205.694 392.312 203.926 392.143 202.652 391.805C201.378 391.467 200.429 390.895 199.805 390.089C199.233 389.361 198.856 388.399 198.674 387.203C198.518 386.007 198.44 384.304 198.44 382.094C198.44 380.066 198.505 378.48 198.635 377.336C198.765 376.192 199.051 375.243 199.493 374.489C199.961 373.657 200.689 373.046 201.677 372.656C202.665 372.24 204.03 371.98 205.772 371.876V382.094C205.772 383.42 205.785 384.291 205.811 384.707C205.837 385.331 205.915 385.799 206.045 386.111C206.175 386.423 206.396 386.618 206.708 386.696C206.968 386.774 207.384 386.813 207.956 386.813H208.502V392.312H207.956ZM234.174 392.273C233.238 392.273 232.471 392.195 231.873 392.039C231.275 391.909 230.716 391.636 230.196 391.22V386.267H230.625C231.197 386.267 231.6 386.241 231.834 386.189C232.094 386.111 232.289 385.955 232.419 385.721C232.549 385.435 232.627 385.019 232.653 384.473C232.679 384.083 232.692 383.277 232.692 382.055C232.692 380.833 232.679 380.027 232.653 379.637C232.627 379.065 232.549 378.649 232.419 378.389C232.315 378.129 232.12 377.973 231.834 377.921C231.47 377.869 231.067 377.843 230.625 377.843H230.196V372.89C230.716 372.5 231.288 372.227 231.912 372.071C232.562 371.915 233.316 371.837 234.174 371.837C235.214 371.837 236.098 372.006 236.826 372.344C237.58 372.682 238.191 373.228 238.659 373.982C239.569 375.49 240.024 378.155 240.024 381.977C240.024 385.773 239.569 388.451 238.659 390.011C237.749 391.519 236.254 392.273 234.174 392.273ZM221.343 372.11H228.558V399.761H221.343V372.11ZM258.632 377.531C258.138 377.505 257.462 377.44 256.604 377.336C254.992 377.18 253.692 377.102 252.704 377.102H251.417V371.798C253.263 371.798 255.018 371.928 256.682 372.188L258.632 372.539V377.531ZM252.977 385.955C252.977 385.565 252.912 385.318 252.782 385.214C252.652 385.11 252.379 385.032 251.963 384.98L247.751 384.395C246.711 384.239 245.866 383.992 245.216 383.654C244.592 383.316 244.124 382.861 243.812 382.289C243.5 381.795 243.292 381.197 243.188 380.495C243.084 379.793 243.032 378.922 243.032 377.882C243.032 375.75 243.669 374.19 244.943 373.202C246.009 372.422 247.621 371.967 249.779 371.837V377.96C249.779 378.35 249.831 378.61 249.935 378.74C250.039 378.844 250.364 378.935 250.91 379.013L255.59 379.637C256.266 379.715 256.851 379.858 257.345 380.066C257.839 380.248 258.255 380.534 258.593 380.924C259.347 381.756 259.724 383.355 259.724 385.721C259.724 388.217 259.087 389.959 257.813 390.947C256.695 391.779 255.083 392.221 252.977 392.273V385.955ZM251.339 392.312C249.259 392.286 247.439 392.156 245.879 391.922L243.656 391.571V386.579C244.696 386.683 246.1 386.787 247.868 386.891C248.856 386.943 249.558 386.969 249.974 386.969H251.339V392.312ZM264.991 374.567C264.913 373.943 264.822 372.942 264.718 371.564L264.445 368.912L264.289 366.845L264.211 365.753V365.168H272.908V365.753L272.869 366.845L272.674 368.912L272.44 371.564L272.128 374.567L271.348 382.406H265.771L264.991 374.567ZM264.601 385.643H272.479V392H264.601V385.643ZM50.535 426.168H58.335V453H50.535V426.168ZM61.533 443.874H59.973V437.907H61.299C62.105 437.907 62.716 437.881 63.132 437.829C63.548 437.751 63.873 437.621 64.107 437.439C64.315 437.257 64.458 436.984 64.536 436.62C64.614 436.256 64.653 435.723 64.653 435.021C64.653 434.319 64.614 433.786 64.536 433.422C64.458 433.032 64.315 432.746 64.107 432.564C63.899 432.382 63.587 432.265 63.171 432.213C62.781 432.161 62.157 432.135 61.299 432.135H59.973V426.168H63.99C65.836 426.168 67.331 426.35 68.475 426.714C69.619 427.078 70.503 427.637 71.127 428.391C71.699 429.093 72.076 429.964 72.258 431.004C72.466 432.044 72.57 433.383 72.57 435.021C72.57 437.127 72.375 438.752 71.985 439.896C71.439 441.352 70.477 442.379 69.099 442.977L73.155 453H64.965L61.533 443.874ZM84.7313 441.105H87.4613C87.4613 439.649 87.3183 438.713 87.0323 438.297C86.8763 438.063 86.6683 437.92 86.4083 437.868C86.1483 437.79 85.7713 437.751 85.2773 437.751H84.7313V432.798H85.2773C87.5133 432.798 89.2293 432.98 90.4253 433.344C91.6473 433.708 92.5443 434.306 93.1163 435.138C93.6363 435.866 93.9483 436.802 94.0523 437.946C94.1823 439.09 94.2473 440.806 94.2473 443.094V444.654H84.7313V441.105ZM86.0573 453.312C83.6653 453.312 81.7803 453.117 80.4023 452.727C79.0503 452.311 78.0363 451.661 77.3603 450.777C76.7623 449.997 76.3723 449.035 76.1903 447.891C76.0083 446.721 75.9173 445.122 75.9173 443.094C75.9173 441.222 75.9823 439.74 76.1123 438.648C76.2423 437.53 76.5153 436.581 76.9313 435.801C77.3993 434.943 78.1143 434.28 79.0763 433.812C80.0643 433.318 81.4033 433.006 83.0933 432.876V444.654C83.0933 445.538 83.1323 446.175 83.2103 446.565C83.2883 446.929 83.4703 447.202 83.7563 447.384C84.0683 447.592 84.5493 447.709 85.1993 447.735C86.0313 447.787 86.9153 447.813 87.8513 447.813C89.5153 447.813 90.7243 447.774 91.4783 447.696L93.4673 447.54V452.571C92.4273 452.883 90.9973 453.091 89.1773 453.195C88.2933 453.273 87.2533 453.312 86.0573 453.312ZM111.12 438.453C110.47 438.349 109.534 438.297 108.312 438.297C107.506 438.297 106.934 438.349 106.596 438.453V432.798C108.442 432.824 110.353 433.058 112.329 433.5V438.57L111.12 438.453ZM106.323 453.312C104.295 453.312 102.683 453.065 101.487 452.571C100.291 452.077 99.4073 451.349 98.8353 450.387C98.3153 449.555 97.9773 448.58 97.8213 447.462C97.6913 446.344 97.6263 444.888 97.6263 443.094C97.6263 441.456 97.6913 440.091 97.8213 438.999C97.9513 437.907 98.2243 436.945 98.6403 436.113C99.1343 435.151 99.8753 434.41 100.863 433.89C101.877 433.344 103.242 433.006 104.958 432.876V443.055C104.958 444.199 104.984 445.057 105.036 445.629C105.114 446.201 105.257 446.643 105.465 446.955C105.699 447.267 106.024 447.488 106.44 447.618C106.882 447.748 107.506 447.813 108.312 447.813C109.69 447.813 110.639 447.774 111.159 447.696L112.485 447.54V452.61C110.561 453.078 108.507 453.312 106.323 453.312ZM127.455 443.094C127.455 441.768 127.442 440.884 127.416 440.442C127.39 439.818 127.312 439.35 127.182 439.038C127.052 438.7 126.844 438.492 126.558 438.414C126.246 438.336 125.817 438.297 125.271 438.297H124.725V432.798H125.271C127.533 432.798 129.301 432.98 130.575 433.344C131.849 433.682 132.798 434.254 133.422 435.06C133.994 435.788 134.358 436.763 134.514 437.985C134.696 439.181 134.787 440.884 134.787 443.094C134.787 445.148 134.722 446.747 134.592 447.891C134.488 449.009 134.215 449.932 133.773 450.66C133.279 451.466 132.538 452.077 131.55 452.493C130.562 452.883 129.197 453.13 127.455 453.234V443.094ZM125.271 453.312C123.009 453.312 121.241 453.143 119.967 452.805C118.693 452.467 117.744 451.895 117.12 451.089C116.548 450.361 116.171 449.399 115.989 448.203C115.833 447.007 115.755 445.304 115.755 443.094C115.755 441.066 115.82 439.48 115.95 438.336C116.08 437.192 116.366 436.243 116.808 435.489C117.276 434.657 118.004 434.046 118.992 433.656C119.98 433.24 121.345 432.98 123.087 432.876V443.094C123.087 444.42 123.1 445.291 123.126 445.707C123.152 446.331 123.23 446.799 123.36 447.111C123.49 447.423 123.711 447.618 124.023 447.696C124.283 447.774 124.699 447.813 125.271 447.813H125.817V453.312H125.271ZM147.512 434.241C148.058 433.721 148.695 433.357 149.423 433.149C150.177 432.915 151.1 432.798 152.192 432.798V439.311C151.022 439.311 150.06 439.389 149.306 439.545C148.578 439.701 147.98 439.974 147.512 440.364V434.241ZM138.659 433.11H145.874V453H138.659V433.11ZM165.917 424.023H173.132V453H165.917V424.023ZM160.301 453.273C159.261 453.273 158.364 453.104 157.61 452.766C156.882 452.428 156.297 451.882 155.855 451.128C155.361 450.348 154.997 449.308 154.763 448.008C154.555 446.708 154.451 445.083 154.451 443.133C154.451 439.311 154.919 436.633 155.855 435.099C156.739 433.591 158.221 432.837 160.301 432.837C161.237 432.837 162.004 432.915 162.602 433.071C163.2 433.201 163.759 433.474 164.278 433.89V438.843H163.85C163.278 438.843 162.862 438.882 162.602 438.96C162.368 439.012 162.186 439.155 162.056 439.389C161.926 439.675 161.848 440.091 161.822 440.637C161.796 441.027 161.783 441.833 161.783 443.055C161.783 444.277 161.796 445.083 161.822 445.473C161.848 446.019 161.926 446.435 162.056 446.721C162.186 446.981 162.394 447.137 162.68 447.189C163.044 447.241 163.434 447.267 163.85 447.267H164.278V452.22C163.759 452.61 163.174 452.883 162.524 453.039C161.9 453.195 161.159 453.273 160.301 453.273ZM188.025 427.26V426.168H195.825L210.879 451.869V453H203.118L188.025 427.26ZM203.469 435.957V426.168H210.879V448.632L203.469 435.957ZM188.025 430.497L195.435 443.172V453H188.025V430.497ZM226.745 443.094C226.745 441.768 226.732 440.884 226.706 440.442C226.68 439.818 226.602 439.35 226.472 439.038C226.342 438.7 226.134 438.492 225.848 438.414C225.536 438.336 225.107 438.297 224.561 438.297H224.015V432.798H224.561C226.823 432.798 228.591 432.98 229.865 433.344C231.139 433.682 232.088 434.254 232.712 435.06C233.284 435.788 233.648 436.763 233.804 437.985C233.986 439.181 234.077 440.884 234.077 443.094C234.077 445.148 234.012 446.747 233.882 447.891C233.778 449.009 233.505 449.932 233.063 450.66C232.569 451.466 231.828 452.077 230.84 452.493C229.852 452.883 228.487 453.13 226.745 453.234V443.094ZM224.561 453.312C222.299 453.312 220.531 453.143 219.257 452.805C217.983 452.467 217.034 451.895 216.41 451.089C215.838 450.361 215.461 449.399 215.279 448.203C215.123 447.007 215.045 445.304 215.045 443.094C215.045 441.066 215.11 439.48 215.24 438.336C215.37 437.192 215.656 436.243 216.098 435.489C216.566 434.657 217.294 434.046 218.282 433.656C219.27 433.24 220.635 432.98 222.377 432.876V443.094C222.377 444.42 222.39 445.291 222.416 445.707C222.442 446.331 222.52 446.799 222.65 447.111C222.78 447.423 223.001 447.618 223.313 447.696C223.573 447.774 223.989 447.813 224.561 447.813H225.107V453.312H224.561ZM236.237 433.11H239.903V427.338H247.118V433.11H251.486V438.609H236.237V433.11ZM239.903 440.169H247.118V453H239.903V440.169ZM264.845 426.168H272.645V453H264.845V426.168ZM274.283 426.168H283.409V432.135H274.283V426.168ZM274.283 437.244H281.966V443.211H274.283V437.244ZM297.547 443.094C297.547 441.768 297.534 440.884 297.508 440.442C297.482 439.818 297.404 439.35 297.274 439.038C297.144 438.7 296.936 438.492 296.65 438.414C296.338 438.336 295.909 438.297 295.363 438.297H294.817V432.798H295.363C297.625 432.798 299.393 432.98 300.667 433.344C301.941 433.682 302.89 434.254 303.514 435.06C304.086 435.788 304.45 436.763 304.606 437.985C304.788 439.181 304.879 440.884 304.879 443.094C304.879 445.148 304.814 446.747 304.684 447.891C304.58 449.009 304.307 449.932 303.865 450.66C303.371 451.466 302.63 452.077 301.642 452.493C300.654 452.883 299.289 453.13 297.547 453.234V443.094ZM295.363 453.312C293.101 453.312 291.333 453.143 290.059 452.805C288.785 452.467 287.836 451.895 287.212 451.089C286.64 450.361 286.263 449.399 286.081 448.203C285.925 447.007 285.847 445.304 285.847 443.094C285.847 441.066 285.912 439.48 286.042 438.336C286.172 437.192 286.458 436.243 286.9 435.489C287.368 434.657 288.096 434.046 289.084 433.656C290.072 433.24 291.437 432.98 293.179 432.876V443.094C293.179 444.42 293.192 445.291 293.218 445.707C293.244 446.331 293.322 446.799 293.452 447.111C293.582 447.423 293.803 447.618 294.115 447.696C294.375 447.774 294.791 447.813 295.363 447.813H295.909V453.312H295.363ZM314.327 453.273C311.987 453.273 310.414 452.558 309.608 451.128C309.244 450.504 308.997 449.75 308.867 448.866C308.737 447.956 308.672 446.851 308.672 445.551V433.11H315.887V442.509C315.887 443.887 315.9 444.797 315.926 445.239C315.978 445.889 316.056 446.357 316.16 446.643C316.264 446.929 316.433 447.111 316.667 447.189C316.901 447.241 317.317 447.267 317.915 447.267H318.305V452.142C317.291 452.896 315.965 453.273 314.327 453.273ZM319.943 433.11H327.158V453H319.943V433.11ZM342.873 443.601C342.873 442.223 342.86 441.313 342.834 440.871C342.782 440.143 342.717 439.662 342.639 439.428C342.535 439.168 342.353 439.012 342.093 438.96C341.833 438.882 341.417 438.843 340.845 438.843H340.455V433.968C341.469 433.214 342.795 432.837 344.433 432.837C346.773 432.837 348.346 433.552 349.152 434.982C349.516 435.606 349.763 436.373 349.893 437.283C350.023 438.167 350.088 439.259 350.088 440.559V453H342.873V443.601ZM331.602 433.11H338.817V453H331.602V433.11ZM365.411 424.023H372.626V453H365.411V424.023ZM359.795 453.273C358.755 453.273 357.858 453.104 357.104 452.766C356.376 452.428 355.791 451.882 355.349 451.128C354.855 450.348 354.491 449.308 354.257 448.008C354.049 446.708 353.945 445.083 353.945 443.133C353.945 439.311 354.413 436.633 355.349 435.099C356.233 433.591 357.715 432.837 359.795 432.837C360.731 432.837 361.498 432.915 362.096 433.071C362.694 433.201 363.253 433.474 363.773 433.89V438.843H363.344C362.772 438.843 362.356 438.882 362.096 438.96C361.862 439.012 361.68 439.155 361.55 439.389C361.42 439.675 361.342 440.091 361.316 440.637C361.29 441.027 361.277 441.833 361.277 443.055C361.277 444.277 361.29 445.083 361.316 445.473C361.342 446.019 361.42 446.435 361.55 446.721C361.68 446.981 361.888 447.137 362.174 447.189C362.538 447.241 362.928 447.267 363.344 447.267H363.773V452.22C363.253 452.61 362.668 452.883 362.018 453.039C361.394 453.195 360.653 453.273 359.795 453.273Z" fill="#5E000A"/>
</svg>
